<?xml version="1.0" standalone="no"?>
<!DOCTYPE svg PUBLIC "-//W3C//DTD SVG 1.1//EN" "http://www.w3.org/Graphics/SVG/1.1/DTD/svg11.dtd" >
<svg xmlns="http://www.w3.org/2000/svg">
<metadata>Generated by IcoMoon</metadata>
<defs>
<font id="icomoon" horiz-adv-x="1024">
<font-face units-per-em="1024" ascent="960" descent="-64" />
<missing-glyph horiz-adv-x="1024" />
<glyph unicode="&#x20;" horiz-adv-x="512" d="" />
<glyph unicode="&#xe900;" d="M1024 448c0-282.77-229.23-512-512-512s-512 229.23-512 512c0 282.77 229.23 512 512 512s512-229.23 512-512z" />
<glyph unicode="&#xe901;" d="M547.556 206.933c0-19.637-15.919-35.556-35.556-35.556s-35.556 15.919-35.556 35.556c0 19.637 15.919 35.556 35.556 35.556s35.556-15.919 35.556-35.556z" />
<glyph unicode="&#xe902;" d="M553.671 682.951c0.045 0.727 0.071 1.577 0.071 2.433 0 23.014-18.657 41.671-41.671 41.671s-41.671-18.657-41.671-41.671c0-0.856 0.026-1.706 0.077-2.549l-0.006 0.116s0 0 0-0.996 0-0.711 0-1.138l12.089-344.036c0-16.259 13.181-29.44 29.44-29.44s29.44 13.181 29.44 29.44v0l12.089 344.036s0 0.711 0 1.138 0.142 0.711 0.142 0.996z" />
<glyph unicode="&#xe903;" glyph-name="wait" d="M1024 448c0-282.77-229.23-512-512-512s-512 229.23-512 512c0 282.77 229.23 512 512 512s512-229.23 512-512z" />
<glyph unicode="&#xe904;" glyph-name="upload-file" d="M298.88 683.52c8.272 0.085 15.731 3.496 21.117 8.957l0.003 0.003 161.92 162.56v-592.64c0-16.613 13.467-30.080 30.080-30.080s30.080 13.467 30.080 30.080v0 592.64l161.92-162.56c5.46-5.546 13.049-8.982 21.44-8.982s15.98 3.436 21.436 8.978l0.004 0.004c5.546 5.46 8.982 13.049 8.982 21.44s-3.436 15.98-8.978 21.436l-213.764 213.764c-4.646 4.716-11.102 7.637-18.24 7.637s-13.594-2.922-18.237-7.634l-0.003-0.003-218.88-213.76c-5.546-5.46-8.982-13.049-8.982-21.44s3.436-15.98 8.978-21.436l0.004-0.004c5.389-5.464 12.848-8.875 21.104-8.96h0.016zM933.76 601.6h-181.12c-16.789 0-30.4-13.611-30.4-30.4s13.611-30.4 30.4-30.4h180.48c16.613 0 30.080-13.467 30.080-30.080v0-483.84c0-16.613-13.467-30.080-30.080-30.080h-842.88c-16.613 0-30.080 13.467-30.080 30.080v0 485.12c0 16.613 13.467 30.080 30.080 30.080v0h181.12c16.789 0 30.4 13.611 30.4 30.4s-13.611 30.4-30.4 30.4h-181.12c-49.916-0.363-90.24-40.911-90.24-90.878 0-0.001 0-0.002 0-0.002v0-483.84c-0.006-0.381-0.009-0.831-0.009-1.282 0-49.97 40.329-90.52 90.215-90.878h843.554c49.916 0.363 90.24 40.911 90.24 90.878 0 0.001 0 0.002 0 0.002v0 485.12c-0.717 49.418-40.769 89.245-90.206 89.6h-0.034z" />
<glyph unicode="&#xe905;" glyph-name="success" d="M512 960c-282.77 0-512-229.23-512-512s229.23-512 512-512c282.77 0 512 229.23 512 512v0c0 282.77-229.23 512-512 512v0zM773.404 582.542l-327.111-298.667c-4.341-3.999-10.161-6.452-16.554-6.452-6.754 0-12.869 2.737-17.295 7.163v0l-162.276 163.413c-3.693 3.932-5.962 9.24-5.962 15.077 0 12.175 9.87 22.044 22.044 22.044 4.083 0 7.906-1.11 11.185-3.044l-0.103 0.056 152.036-92.587 318.009 225.28c3.366 2.452 7.584 3.922 12.145 3.922 11.468 0 20.764-9.297 20.764-20.764 0-6.122-2.649-11.625-6.864-15.426l-0.018-0.016z" />
<glyph unicode="&#xe906;" glyph-name="signed" d="M341.504 33.28h-268.288c-12.427 1.339-22.016 11.771-22.016 24.442 0 0.047 0 0.094 0 0.141v-0.007 828.928c1.195 11.647 10.369 20.821 21.911 22.007l0.105 0.009h780.288c13.573 0 24.576-11.003 24.576-24.576v0-218.624c0-14.138 11.462-25.6 25.6-25.6s25.6 11.462 25.6 25.6v0 221.184c0 0.013 0 0.029 0 0.045 0 40.436-32.78 73.216-73.216 73.216-0.9 0-1.797-0.016-2.689-0.048l0.129 0.004h-780.288c-40.436 0-73.216-32.78-73.216-73.216v0-828.928c1.419-39.319 33.635-70.656 73.171-70.656 0.016 0 0.031 0 0.047 0h268.286c14.138 0 25.6 11.462 25.6 25.6s-11.462 25.6-25.6 25.6v0zM707.072 569.856c-175.035 0-316.928-141.893-316.928-316.928s141.893-316.928 316.928-316.928c175.035 0 316.928 141.893 316.928 316.928v0c-0.291 174.917-142.010 316.637-316.9 316.928h-0.028zM707.072-15.36c-0.761-0.008-1.66-0.012-2.56-0.012-148.171 0-268.288 120.117-268.288 268.288s120.117 268.288 268.288 268.288c148.167 0 268.281-120.11 268.288-268.275v-0.001c-1.433-146.178-119.55-264.295-265.591-265.727l-0.137-0.001zM563.2 716.288c0 13.573-11.003 24.576-24.576 24.576v0h-343.552c-14.138 0-25.6-11.462-25.6-25.6s11.462-25.6 25.6-25.6v0h341.504c0.642-0.060 1.388-0.093 2.141-0.093 13.573 0 24.576 11.003 24.576 24.576 0 0.754-0.034 1.5-0.1 2.236l0.007-0.095zM414.72 521.216c0 13.573-11.003 24.576-24.576 24.576v0h-195.072c-14.138 0-25.6-11.462-25.6-25.6s11.462-25.6 25.6-25.6v0h195.072c0.025 0 0.055 0 0.085 0 13.573 0 24.576 11.003 24.576 24.576 0 0.721-0.031 1.435-0.092 2.14l0.006-0.092zM195.072 374.784c-14.138 0-25.6-11.462-25.6-25.6s11.462-25.6 25.6-25.6v0h97.28c14.138 0 25.6 11.462 25.6 25.6s-11.462 25.6-25.6 25.6v0zM837.632 343.040l-178.688-151.040-81.92 72.192c-3.776 2.483-8.405 3.961-13.38 3.961-13.573 0-24.576-11.003-24.576-24.576 0-6.005 2.154-11.507 5.731-15.776l-0.031 0.038 113.664-102.4 211.968 180.224c6.948 4.421 11.491 12.082 11.491 20.803 0 13.573-11.003 24.576-24.576 24.576-7.178 0-13.637-3.077-18.13-7.984l-0.017-0.018z" />
<glyph unicode="&#xe907;" glyph-name="signature2" d="M775.569 528.139c-0.099 0-0.217 0-0.334 0-137.389 0-248.765-111.376-248.765-248.765s111.376-248.765 248.765-248.765c137.389 0 248.765 111.376 248.765 248.765v0c0 0.033 0 0.072 0 0.111 0 137.249-111.199 248.527-248.419 248.654h-0.012zM852.369 160.835l-76.8 40.403-76.8-40.403 14.692 85.593-62.108 60.661 85.816 12.911 38.4 77.913 38.4-77.913 85.816-12.466-62.108-60.661zM781.579 572.883c79.772-1.604 151.456-34.948 203.188-87.875l0.054-0.055v358.177c0 12.294-9.967 22.261-22.261 22.261v0h-940.299c-12.294 0-22.261-9.967-22.261-22.261v0-694.873c0-12.294 9.967-22.261 22.261-22.261v0h503.318c-27.17 43.668-43.277 96.669-43.277 153.432 0 162.162 131.459 293.621 293.621 293.621 1.989 0 3.973-0.020 5.953-0.059l-0.296 0.005zM106.296 712.459h425.294c8.414-1.001 14.876-8.094 14.876-16.696s-6.462-15.694-14.796-16.688l-0.080-0.008h-425.294c-8.414 1.001-14.876 8.094-14.876 16.696s6.462 15.694 14.796 16.688l0.080 0.008zM275.812 345.155h-169.517c-8.414 1.001-14.876 8.094-14.876 16.696s6.462 15.694 14.796 16.688l0.080 0.008h169.517c8.414-1.001 14.876-8.094 14.876-16.696s-6.462-15.694-14.796-16.688l-0.080-0.008zM378.435 513.002h-272.139c-8.414 1.001-14.876 8.094-14.876 16.696s6.462 15.694 14.796 16.688l0.080 0.008h272.139c8.414-1.001 14.876-8.094 14.876-16.696s-6.462-15.694-14.796-16.688l-0.080-0.008z" />
<glyph unicode="&#xe908;" glyph-name="signature1" d="M94.226 498.032q0-4.491 0.988-8.982c4.021 5.617 8.612 10.464 13.781 14.621l0.142 0.11-1.347 8.533c-5.175-4.135-9.647-8.835-13.42-14.073l-0.143-0.209zM115.155 554.712c-2.953 7.559-6.426 14.070-10.549 20.101l0.219-0.339-3.234-7.006c3.927-5.568 7.504-11.915 10.419-18.616l0.27-0.696zM149.917 570.161l-2.425 6.198c-7.401-13.584-16.373-25.219-26.891-35.248l-0.056-0.053q2.695 19.222 6.916 37.277l-4.042 1.078c-2.964-11.96-5.767-27.21-7.763-42.714l-0.231-2.199-22.097 3.324q-0.629-4.491-1.078-8.982l21.738-2.874c-1.603-14.337-2.517-30.957-2.517-47.791 0-0.472 0.001-0.944 0.002-1.416v0.073h4.132q0 21.019 1.886 40.87c8.32-12.868 14.565-27.932 17.824-44.078l0.141-0.835 3.952 4.851c-4.174 17.852-11.676 33.512-21.875 47.023l0.227-0.314v0.539l27.935-3.683q0 4.401 0.898 8.354l-27.935 4.312v0.629c12.318 10.005 22.704 21.791 30.916 35.065l0.343 0.595zM166.894 629.535c-3.947-4.302-7.536-9.062-10.641-14.15l-0.228-0.402 1.707-4.312c3.259 5.397 6.851 10.075 10.898 14.313l-0.029-0.031-1.707 4.491zM176.415 650.554l-5.749 3.234q2.964 6.018 6.108 11.947l-3.234 1.886q-3.234-5.928-6.198-12.126l-3.773 1.976q3.593 7.276 7.455 14.372l-3.144 1.886c-7.306-12.98-14.559-28.458-20.714-44.479l-0.844-2.499c-0.719 1.168-1.527 2.515-2.425 3.862 5.826 15.26 11.476 27.659 17.767 39.669l-0.97-2.033-3.054 1.707c-5.064-9.436-10.528-21.267-15.372-33.411l-0.886-2.519c-0.891 1.117-1.772 2.112-2.701 3.061l0.007-0.007c6.205 15.653 12.237 28.424 18.944 40.775l-0.979-1.971-3.144 1.796c-5.676-10.072-11.699-22.477-17.041-35.237l-0.924-2.489c-0.826 0.807-1.704 1.571-2.625 2.284l-0.069 0.052-3.234-6.916 3.234-2.515q-5.569-14.731-10.060-30.271l2.964-1.886c3.064 11.373 6.437 20.932 10.426 30.162l-0.546-1.418c0.898-0.988 1.886-1.886 2.695-3.054q-4.222-11.318-7.725-23.175l3.234-0.719q3.234 10.689 7.006 21.019c0.77-1.121 1.575-2.442 2.309-3.806l0.116-0.236q-4.671-12.665-8.354-25.959l3.324-1.078q3.234 11.408 7.006 22.366c3.471-8.86 5.483-19.119 5.483-29.848 0-0.275-0.001-0.549-0.004-0.824v0.042l4.581 3.054c-0.088 8.29-1.065 16.306-2.84 24.016l0.146-0.752c5.12 15.177 10.163 27.501 15.845 39.463l-0.934-2.186 5.21-2.695c1.617-0.808 1.886-1.886 0.719-4.851s-2.425-5.569-3.862-8.354h4.222q1.886 4.491 3.952 8.982c1.886 4.761 1.886 7.994-1.347 9.701zM150.366 616.96c-0.734 2.168-1.615 4.039-2.677 5.786l0.072-0.127q5.569 14.911 12.126 29.013l3.862-1.886q-7.366-16.258-13.384-32.786zM135.276 645.614c-0.869 3.507-1.884 6.5-3.115 9.379l0.151-0.397 3.234 7.006c2.343 0.855 5.101 1.546 7.951 1.95l0.223 0.026 1.707 6.378c-2.559-0.646-4.772-1.445-6.879-2.433l0.232 0.098q4.401 8.982 8.982 17.965l-3.234 1.886q-7.725-14.102-14.462-29.103l-2.335 3.683-3.862-6.647c3.064-4.283 5.344-9.349 6.51-14.827l0.047-0.263zM120.545 600.702c-0.943 4.183-2.055 7.755-3.412 11.203l0.178-0.514 2.246 7.186c2.213 1.251 4.795 2.406 7.49 3.318l0.325 0.095q0 3.324 0.898 6.827c-2.461-0.91-4.533-1.877-6.513-2.991l0.225 0.117q2.515 7.186 5.3 14.282l-3.324 1.437q-4.94-12.126-8.982-25.151c-0.847 1.663-1.712 3.074-2.673 4.411l0.068-0.1-3.234-7.366c3.62-5.351 6.285-11.662 7.585-18.458l0.050-0.315zM181.715 696.545l5.479 1.707c1.827 6.887 3.021 14.864 3.318 23.070l0.006 0.194-5.21-2.335c-0.43-8.235-1.715-15.975-3.772-23.393l0.179 0.758zM218.543 743.074v0zM189.979 705.437l12.036-8.354c7.175 10.151 14.103 18.932 21.446 27.341l-0.337-0.394-11.138 9.701c-7.297-8.4-14.522-17.621-21.274-27.198l-0.733-1.097zM202.644 704.719l-5.569 3.773q6.647 8.982 13.653 17.426l5.389-4.851q-6.916-7.545-13.384-16.438zM213.333 759.512q-7.635-7.815-14.821-16.168c-0.415 3.435-1.014 6.482-1.813 9.447l0.107-0.465q7.276 8.174 14.911 15.809l-2.964 3.234c-9.283-9.374-18.099-19.271-26.374-29.618l-0.574-0.742c-1.817 0.49-4.015 0.901-6.261 1.149l-0.206 0.018-4.491-7.006c0.9 0.069 1.95 0.108 3.009 0.108s2.109-0.039 3.148-0.116l-0.139 0.008c-7.946-10.27-15.92-21.907-23.227-33.993l-0.935-1.667 3.503-2.246q5.659 8.982 11.677 17.965c1.348 0.157 2.909 0.246 4.491 0.246s3.144-0.090 4.679-0.264l-0.188 0.017q-6.108-8.982-11.857-17.965l32.067-20.749 3.413 5.389-28.564 19.133c12.326 18.898 25.31 35.364 39.608 50.58l-0.175-0.188 20.031-18.773c1.796-1.437 1.796-3.144 0-4.94l-6.018-6.467 4.042-1.347 6.108 6.827c3.503 3.773 4.042 7.006 1.168 9.791zM180.907 722.324c-1.251 0.112-2.707 0.176-4.177 0.176s-2.926-0.064-4.364-0.189l0.187 0.013q8.982 12.665 19.043 24.342c0.719-2.964 1.347-5.839 1.886-8.982zM218.543 742.984c-8.008-2.23-14.957-5.048-21.492-8.538l0.563 0.275q-0.539-2.695-0.898-5.479c5.992 3.269 12.934 5.981 20.237 7.779l0.602 0.125q0.449 2.964 0.988 5.839zM292.918 793.914c0.018 0.822 0.029 1.791 0.029 2.762 0 9.744-1.058 19.24-3.064 28.381l0.161-0.872-5.928-2.246c2.12-8.542 3.336-18.348 3.336-28.438 0-0.613-0.004-1.225-0.013-1.836l0.001 0.093zM288.337 781.159l-27.846 38.445-6.018-4.222 28.654-37.996-10.24-7.635-30.361 37.008-5.749-4.491 30.63-36.469q-10.509-8.354-20.3-17.965l2.964-3.054c18.474 17.396 39.075 32.907 61.266 46.009l1.611 0.88-2.156 3.503q-11.408-6.378-22.456-14.013zM256.539 768.314v0c-8.259 4.856-17.804 8.962-27.872 11.824l-0.872 0.212-3.593-4.94c10.817-3.064 20.24-7.075 29.009-12.097l-0.625 0.33zM356.604 834.874l8.982-20.39 5.928 2.246-8.354 20.749h0.988c8.075-4.765 17.438-8.515 27.375-10.746l0.65-0.123 2.785 4.671c-9.559 1.432-18.177 4.231-26.092 8.219l0.492-0.225q9.611 3.324 19.312 6.288l-1.347 3.952q-13.025-3.593-25.78-8.354l-2.425 5.928q8.982 3.324 17.965 6.288l-6.288 17.965c-18.001-5.744-32.576-11.408-46.747-17.812l2.733 1.105 8.354-16.797q8.982 3.862 17.965 7.366l2.515-5.928q-12.216-4.761-24.073-10.33l1.886-3.683q8.982 4.132 17.965 7.815c-2.977-8.693-7.35-16.193-12.917-22.632l0.073 0.086 5.030-1.886c5.835 7.615 10.272 16.636 12.737 26.441l0.108 0.506zM339.267 843.857l-4.491 9.611q15.091 6.378 30.63 11.677l3.683-9.791q-15.18-5.3-29.822-11.587zM320.404 852.749l-7.096-0.808c-0.286-11.669-3.174-22.598-8.103-32.318l0.198 0.431 4.401-2.874c1.669 3.138 3.422 7.016 4.953 11.005l0.257 0.762 16.348-29.552 5.749 2.874-19.133 35.93c1.2 4.248 2.063 9.214 2.413 14.32l0.013 0.231zM449.841 862.001l1.078-6.916-21.109-3.413 0.808-3.952q10.15 1.976 20.39 3.413l1.168-7.545q-11.947-1.796-23.714-4.132l0.898-3.952c15.072 3.206 33.217 5.726 51.7 7.023l1.296 0.073v4.042q-11.677-1.078-23.714-2.605l-0.539 7.635q10.24 1.258 20.57 2.066v4.042q-10.42-0.719-20.749-2.066l-0.988 6.916q9.701 1.258 19.582 1.976l-2.515 26.947c-18.565-1.423-35.27-3.653-51.672-6.741l2.897 0.454 5.659-26.947q9.252 2.246 18.953 3.683zM469.154 867.75l-13.204-1.437-1.078 7.905 13.384 1.527zM467.088 888.14l0.808-8.354-13.474-1.527-1.168 8.354zM449.123 865.774l-12.845-2.066-1.527 7.815 13.474 2.066zM446.338 885.176l1.258-7.905-13.743-2.066-1.527 7.905zM402.324 874.577l3.683-13.384-10.15-2.605 1.168-3.952 9.971 2.605 3.952-14.013-11.048-4.671 2.066-3.234c8.982 3.952 17.426 7.815 25.151 11.677l-0.898 4.042-8.982-4.581-4.042 12.665 10.689 2.066-0.898 3.952-10.33-2.156-3.413 13.564 11.767 2.605-0.808 3.952q-15.719-3.234-31.169-7.366l1.168-3.862zM504.545 841.162h6.198c-3.203 3.514-5.984 7.5-8.209 11.818l-0.144 0.308c-2.571 4.359-4.203 9.551-4.488 15.099l-0.003 0.081c-0.009 0.27-0.014 0.588-0.014 0.907 0 5.341 1.404 10.355 3.864 14.691l-0.077-0.148c2.328 4.78 5.339 8.854 8.963 12.288l0.019 0.018h-7.635c-3.987-3.445-7.292-7.552-9.769-12.168l-0.112-0.228c-2.234-4.045-3.549-8.866-3.549-13.995 0-0.575 0.017-1.146 0.049-1.712l-0.004 0.078c0.384-5.634 2.139-10.789 4.93-15.226l-0.080 0.136c2.887-4.557 6.215-8.484 10.010-11.902l0.051-0.045zM600.747 838.557q-20.031 4.401-40.421 6.737l3.234 25.151q17.965-2.066 35.211-5.569l0.898 4.042q-17.965 3.413-35.93 5.569l2.335 17.965-7.725 0.808-5.3-47.338c-9.589 1.201-20.686 1.887-31.943 1.887-0.139 0-0.277 0-0.416 0h0.021v-4.132c28.12-0.514 55.187-3.759 81.326-9.484l-2.729 0.501zM686.709 826.7l7.455-3.413 1.886 3.503-7.276 3.324 6.916 12.126c-12.087 5.811-27.213 11.894-42.742 17.099l-2.978 0.866c-2.053-5.070-4.041-9.207-6.248-13.206l0.319 0.631-9.611 2.964-1.168-3.773 8.982-2.695c-2.695-3.952-5.479-8.264-8.354-12.306 16.277-5.118 29.461-10.177 42.28-15.904l-2.488 0.993c-0.361-0.582-0.777-1.084-1.253-1.523l-0.005-0.005c-0.979-0.574-2.155-0.913-3.411-0.913-0.575 0-1.133 0.071-1.666 0.205l0.047-0.010c-2.45 0.603-4.517 1.28-6.515 2.090l0.317-0.114-8.354 3.324v-4.312l7.096-2.695c3.023-1.367 6.533-2.404 10.205-2.939l0.214-0.026c0.271-0.029 0.584-0.045 0.902-0.045 2.11 0 4.051 0.728 5.584 1.946l-0.018-0.014c0.7 0.752 1.35 1.573 1.932 2.444l0.045 0.071 7.096-3.234 1.707 3.234-6.827 3.144zM653.833 854.276l11.587-4.222-4.761-0.898c3.347-2.859 6.299-6.010 8.874-9.459l0.108-0.152 5.12 0.898c-2.733 3.307-5.676 6.249-8.872 8.894l-0.11 0.088c7.096-2.695 14.282-5.479 21.378-8.982l-4.581-8.982q-16.797 7.096-33.594 12.845c1.796 3.683 3.324 6.737 4.851 10.060zM675.571 820.772c-9.405 4.217-20.898 8.352-32.729 11.681l-1.853 0.445v0.808c1.976 2.695 4.042 5.749 6.108 8.982q16.797-5.659 33.594-12.755zM629.401 853.558l5.569 1.527c-3.748 4.208-7.804 7.98-12.188 11.345l-0.208 0.153-5.749-1.707c4.72-3.383 8.841-7.106 12.508-11.241l0.067-0.077zM632.634 844.126l-5.12 2.964c-5.443-5.052-11.298-9.938-17.403-14.508l-0.562-0.403 5.3-3.144c5.749 4.671 11.857 9.611 17.785 15.091zM640.988 868.559v0c-3.677 4.086-7.675 7.743-12.001 10.984l-0.215 0.154-5.839-1.527c4.768-3.288 8.92-6.927 12.613-10.99l0.053-0.059zM649.342 861.193c2.335 0.808 4.491 1.886 6.916 2.515 18.429-6.099 33.462-12.18 48.042-19.065l-2.59 1.1 1.886 3.503c-11.136 5.427-25.267 11.256-39.752 16.33l-3.004 0.916c1.745 0.981 3.212 1.932 4.617 2.962l-0.125-0.088-6.557 3.234c-5.564-4.493-12.119-8.026-19.26-10.221l-0.412-0.109 3.234-4.401c2.989 0.709 5.479 1.48 7.899 2.392l-0.444-0.147h-0.539zM649.881 860.025v0zM668.025 827.599c-2.721 3.757-5.672 7.051-8.93 10.014l-0.052 0.047-4.851-0.988c3.088-2.959 5.839-6.224 8.219-9.759l0.134-0.212zM717.788 847.989c1.486-4.24 2.344-9.128 2.344-14.217 0-0.307-0.003-0.614-0.009-0.92l0.001 0.046c0-0.011 0-0.024 0-0.038 0-5.675-1.534-10.991-4.211-15.557l0.079 0.145c-2.938-4.647-6.761-8.47-11.261-11.321l-0.147-0.087c-3.902-2.607-8.377-4.907-13.11-6.678l-0.454-0.149 5.479-2.874c5.45 1.65 10.184 3.757 14.586 6.364l-0.303-0.166c4.705 2.872 8.585 6.638 11.503 11.091l0.084 0.137c2.732 4.402 4.39 9.722 4.491 15.422v0.028c-0.004 5.58-1.024 10.921-2.887 15.849l0.103-0.309zM760.545 800.561c3.612 0.542 6.651 1.169 9.633 1.939l-0.65-0.142c14.611-10.948 27.534-22.105 39.649-34.079l-0.036 0.036 3.054 2.964c-11.484 11.347-23.73 21.998-36.626 31.842l-0.921 0.674c2.335 0.719 4.671 1.707 7.006 2.695l-5.569 4.851c-2.13-0.999-4.75-2.006-7.446-2.842l-0.459-0.122q-12.036 8.982-24.612 16.797l-2.246-3.503q11.587-6.916 22.187-14.372c-6.656-1.312-14.309-2.063-22.138-2.063-4.606 0-9.151 0.26-13.621 0.766l0.548-0.050 1.796-5.389c4.692-0.474 10.141-0.744 15.652-0.744 2.172 0 4.334 0.042 6.485 0.125l-0.31-0.010-18.504-25.151 4.851-3.413 7.815 10.33c10.614-7.729 19.863-15.239 28.707-23.191l-0.323 0.285-4.671-5.389q-1.527-1.527-4.132 0.719l-7.096 6.378-1.347-4.042 7.545-6.467c3.503-3.234 6.378-3.773 8.354-1.707l22.366 23.534c-10.571 9.854-21.963 19.279-33.893 28.012l-1.049 0.732zM776.893 761.578c-8.578 7.646-17.914 15.159-27.621 22.192l-1.033 0.713 3.862 5.030c11.031-7.877 20.602-15.509 29.759-23.6l-0.387 0.335zM754.526 792.567l4.042 5.21c11.17-8.074 20.888-15.911 30.183-24.21l-0.361 0.317-4.491-4.761c-8.788 7.821-18.359 15.51-28.307 22.71l-1.065 0.734zM818.661 718.552c3.157 3.926 5.067 8.972 5.067 14.464 0 0.854-0.046 1.697-0.136 2.526l0.009-0.103q10.689 0.898 19.851 2.246l2.785 2.515c-6.877 8.608-13.664 16.278-20.81 23.596l0.060-0.062-38.625-35.93 4.312-4.581 35.93 32.427q5.659-6.198 10.959-12.755c-5.575-1.084-12.409-1.978-19.351-2.481l-0.59-0.034c0.324-1.327 0.51-2.851 0.51-4.418 0-4.72-1.685-9.046-4.487-12.41l0.025 0.031c-0.456-0.301-1.016-0.48-1.617-0.48s-1.161 0.179-1.628 0.487l0.011-0.007c-2.017 1.378-3.759 2.949-5.269 4.724l-0.031 0.037c-0.629 0.629-1.258 1.707-2.156 2.874l-1.886-4.491c2.951-3.614 6.495-6.614 10.505-8.887l0.184-0.096c0.744-0.348 1.616-0.551 2.536-0.551 1.461 0 2.802 0.513 3.853 1.368l-0.011-0.009zM836.626 685.406c4.049-3.478 8.66-6.48 13.641-8.825l0.371-0.157v5.569c-5.075 2.185-9.452 4.804-13.425 7.914l0.131-0.099c0.946 4.014 2.626 7.535 4.904 10.584l-0.053-0.074q5.030-7.635 9.701-15.629l21.827 13.474c-8.524 14.629-16.833 27.005-25.826 38.832l0.675-0.926-36.469-28.474c-0.539 0-1.347 0-2.335 0.719l-1.886-3.503c7.455-6.827 13.653-12.575 18.863-17.246l2.515 3.503c-4.491 3.773-8.982 7.545-12.935 11.408l16.797 12.306c2.022-2.612 3.929-5.551 5.584-8.645l0.165-0.337c-7.186-8.982-8.982-22.187-6.647-38.984l5.12-1.347c-0.715 3.742-1.124 8.046-1.124 12.445 0 2.641 0.147 5.247 0.434 7.811l-0.029-0.315zM850.639 727.624q8.354-12.036 16.797-25.151l-5.569-4.132q-7.905 13.204-16.797 25.151zM836.267 717.474l5.749 4.491q8.982-12.306 16.797-25.151l-5.749-3.683q-8.713 12.396-16.797 24.342zM895.281 579.862v0c1.857 15.614 7.574 29.615 16.162 41.388l-0.173-0.249-4.132 5.839c-8.89-11.843-14.908-26.322-16.758-42.075l-0.039-0.412zM861.597 663.579c10.917-7.637 23.922-13.102 37.981-15.463l0.554-0.077-1.347 7.366c-14.093 2.059-26.683 7.241-37.462 14.824l0.274-0.183zM878.844 614.535c-2.224-6.229-4.647-11.504-7.464-16.529l0.278 0.54c-5.569 13.564-11.857 27.666-18.863 41.948 9.593-4.902 20.962-9.508 32.755-13.149l1.558-0.414-1.347 7.545c-19.672 5.569-32.157 10.060-37.726 15.899l-3.144-3.144c7.763-14.179 15.969-31.683 23.195-49.686l1.237-3.49c-1.258-1.976-2.605-4.132-4.132-6.198l3.503-6.018c5.506 7.747 10.104 16.669 13.348 26.217l0.215 0.73zM919.804 495.966c-1.128 27.085-4.345 52.666-9.516 77.531l0.533-3.066-3.773-0.898c4.608-21.514 7.823-46.78 8.949-72.588l0.034-0.979zM923.396 568.275l-4.042-0.898c4.965-25.255 7.989-54.461 8.351-84.307l0.003-0.308-39.523-0.898c-2.425 0-3.683 1.796-3.683 5.3q0 7.815-0.629 16.168l-3.593-2.335q0-7.815 0.629-15.899c0-7.905 2.246-11.947 6.467-11.947h44.912c0.001 0.343 0.001 0.749 0.001 1.155 0 33.236-3.237 65.716-9.414 97.142l0.52-3.173zM883.784 555.161c2.684-13.869 4.855-30.777 6.034-47.958l0.074-1.355 17.965 1.617c-1.34 19.435-3.638 37.14-6.915 54.499l0.447-2.849zM892.766 514.201q-1.437 17.246-4.222 34.044l10.42 2.066q2.874-17.067 4.401-35.032zM512 960c-282.77 0-512-229.23-512-512s229.23-512 512-512c282.77 0 512 229.23 512 512v0c0 282.77-229.23 512-512 512v0zM512-42.712c-271.013 0-490.712 219.699-490.712 490.712s219.699 490.712 490.712 490.712c271.013 0 490.712-219.699 490.712-490.712v0c-0.306-270.889-219.822-490.405-490.682-490.712h-0.029zM551.882 486.714l-39.882 114.796-39.972-114.796-121.443-2.425 96.831-73.476-35.211-116.323 99.795 69.434 99.795-69.434-35.211 116.323 96.831 73.476-121.533 2.425z" />
<glyph unicode="&#xe909;" glyph-name="signature" d="M727.040 385.536c-55.045 3.565-106.294 11.948-155.732 24.815l5.716-1.263c0.808 5.406 2.058 10.237 3.75 14.855l-0.166-0.519c3.518 10.231 8.565 19.076 14.958 26.76l-0.11-0.136c32.743 29.194 55.962 68.442 64.807 112.871l0.217 1.305c-2.527 77.76-66.171 139.836-144.312 139.836-1.466 0-2.926-0.022-4.381-0.065l0.213 0.005c-1.4 0.049-3.045 0.076-4.696 0.076-77.967 0-141.501-61.799-144.289-139.086l-0.007-0.255c8.616-45.091 31.328-83.844 63.298-112.472l0.19-0.168c7.041-8.062 12.624-17.606 16.207-28.078l0.177-0.594c1.526-4.099 2.776-8.93 3.533-13.923l0.051-0.413c-43.208-11.499-93.913-19.875-145.947-23.414l-2.533-0.138c-0.161 0.002-0.35 0.004-0.54 0.004-22.365 0-40.596-17.704-41.441-39.863l-0.002-0.077v-112.64c0.287-22.684 18.743-40.963 41.469-40.963 0.181 0 0.362 0.001 0.543 0.003h428.005c0.153-0.002 0.334-0.003 0.515-0.003 22.725 0 41.182 18.279 41.469 40.936v112.667c-0.842 22.067-18.802 39.669-40.934 39.936h-0.026zM716.8 243.2h-409.6v92.16c189.44 16.384 190.464 43.52 191.488 61.952 0.023 0.866 0.037 1.885 0.037 2.907 0 14.401-2.642 28.184-7.469 40.892l0.264-0.791c-6.356 18.223-15.771 33.906-27.758 47.229l0.11-0.125c-23.618 20.016-41.4 46.233-50.881 76.144l-0.319 1.168c2.681 49.308 43.317 88.275 93.055 88.275 2.207 0 4.397-0.077 6.566-0.228l-0.292 0.016c1.271 0.062 2.761 0.097 4.26 0.097 49.8 0 90.525-38.851 93.52-87.898l0.013-0.263c-9.81-31.57-27.583-58.276-50.996-78.674l-0.204-0.174c-11.185-12.824-20.076-27.986-25.825-44.615l-0.287-0.953c-4.562-11.916-7.205-25.7-7.205-40.101 0-1.022 0.013-2.042 0.040-3.058l-0.003 0.15c0-18.432 0-45.568 190.976-61.952zM512 960c-282.77 0-512-229.23-512-512s229.23-512 512-512c282.77 0 512 229.23 512 512v0c0 282.77-229.23 512-512 512v0zM512-12.8c-254.493 0-460.8 206.307-460.8 460.8s206.307 460.8 460.8 460.8c254.493 0 460.8-206.307 460.8-460.8v0c0-254.493-206.307-460.8-460.8-460.8v0z" />
<glyph unicode="&#xe90a;" glyph-name="sign" d="M341.504 33.28h-268.288c-12.427 1.339-22.016 11.771-22.016 24.442 0 0.047 0 0.094 0 0.141v-0.007 828.928c1.195 11.647 10.369 20.821 21.911 22.007l0.105 0.009h780.288c13.573 0 24.576-11.003 24.576-24.576v0-218.624c0-14.138 11.462-25.6 25.6-25.6s25.6 11.462 25.6 25.6v0 221.184c0 0.013 0 0.029 0 0.045 0 40.436-32.78 73.216-73.216 73.216-0.9 0-1.797-0.016-2.689-0.048l0.129 0.004h-780.288c-40.436 0-73.216-32.78-73.216-73.216v0-828.928c1.419-39.319 33.635-70.656 73.171-70.656 0.016 0 0.031 0 0.047 0h268.286c14.138 0 25.6 11.462 25.6 25.6s-11.462 25.6-25.6 25.6v0zM563.2 716.288c0 13.573-11.003 24.576-24.576 24.576v0h-343.552c-14.138 0-25.6-11.462-25.6-25.6s11.462-25.6 25.6-25.6v0h341.504c0.642-0.060 1.388-0.093 2.141-0.093 13.573 0 24.576 11.003 24.576 24.576 0 0.754-0.034 1.5-0.1 2.236l0.007-0.095zM414.72 521.216c0 13.573-11.003 24.576-24.576 24.576v0h-195.072c-14.138 0-25.6-11.462-25.6-25.6s11.462-25.6 25.6-25.6v0h195.072c0.025 0 0.055 0 0.085 0 13.573 0 24.576 11.003 24.576 24.576 0 0.721-0.031 1.435-0.092 2.14l0.006-0.092zM195.072 374.784c-14.138 0-25.6-11.462-25.6-25.6s11.462-25.6 25.6-25.6v0h97.28c14.138 0 25.6 11.462 25.6 25.6s-11.462 25.6-25.6 25.6v0zM707.072 569.856c-175.035 0-316.928-141.893-316.928-316.928s141.893-316.928 316.928-316.928c175.035 0 316.928 141.893 316.928 316.928v0c-0.291 174.917-142.010 316.637-316.9 316.928h-0.028zM707.072-15.36c-0.761-0.008-1.66-0.012-2.56-0.012-148.171 0-268.288 120.117-268.288 268.288s120.117 268.288 268.288 268.288c148.167 0 268.281-120.11 268.288-268.275v-0.001c-1.433-146.178-119.55-264.295-265.591-265.727l-0.137-0.001zM596.992 252.928c0-20.077-16.275-36.352-36.352-36.352s-36.352 16.275-36.352 36.352c0 20.077 16.275 36.352 36.352 36.352s36.352-16.275 36.352-36.352zM743.424 252.928c0-20.077-16.275-36.352-36.352-36.352s-36.352 16.275-36.352 36.352c0 20.077 16.275 36.352 36.352 36.352s36.352-16.275 36.352-36.352zM889.856 252.928c0-20.077-16.275-36.352-36.352-36.352s-36.352 16.275-36.352 36.352c0 20.077 16.275 36.352 36.352 36.352s36.352-16.275 36.352-36.352z" />
<glyph unicode="&#xe90b;" glyph-name="setting" d="M930.816 437.76c4.007 64.089 40.11 118.937 92.29 149.029l0.894 0.475-139.776 233.472c-30.381-11.376-65.483-18.263-102.102-18.94l-0.298-0.004c-0.997-0.023-2.171-0.037-3.349-0.037-27.132 0-52.621 7.035-74.743 19.38l0.78-0.399c-38.49 25.883-63.476 69.27-63.476 118.493 0 7.329 0.554 14.529 1.622 21.56l-0.099-0.789h-266.752c0.619-4.994 0.972-10.774 0.972-16.637 0-51.843-27.618-97.236-68.943-122.269l-0.637-0.358c-21.639-11.62-47.345-18.446-74.646-18.446-0.757 0-1.513 0.005-2.268 0.016l0.114-0.001c-33.072 0.609-64.485 6.942-93.541 18.043l1.893-0.635-138.752-232.96c51.872-26.961 86.693-80.289 86.693-141.749 0-2.547-0.060-5.081-0.178-7.599l0.013 0.356c0.069-1.805 0.108-3.924 0.108-6.052 0-63.081-34.569-118.088-85.797-147.11l-0.839-0.437 139.776-209.92c23.624 12.557 51.593 20.088 81.285 20.479l0.123 0.001c29.122-0.295 56.416-7.846 80.245-20.925l-0.885 0.445c44.967-22.867 75.237-68.793 75.237-121.79 0-5.798-0.362-11.511-1.066-17.119l0.068 0.668h267.776c-0.004 0.4-0.006 0.872-0.006 1.345 0 57.075 29.276 107.313 73.631 136.515l0.615 0.38c21.151 13.809 47.046 22.023 74.86 22.023 0.502 0 1.004-0.003 1.505-0.008l-0.077 0.001c34.18-0.991 66.253-9.003 95.154-22.634l-1.458 0.618 137.216 210.432c-52.874 32.379-88.71 88.113-93.151 152.484l-0.033 0.604zM865.28 135.68c-21.693 6.866-46.665 10.962-72.549 11.263l-0.155 0.001c-38.054-0.048-73.469-11.308-103.128-30.654l0.728 0.446c-45.959-28.969-79.183-74.568-91.385-128.163l-0.263-1.373h-175.616c-10.025 58.508-47.163 106.628-97.764 131.626l-1.052 0.47c-29.646 16.117-64.859 25.741-102.286 26.111l-0.114 0.001c-0.108 0-0.237 0-0.365 0-21.763 0-42.784-3.18-62.623-9.101l1.547 0.396-91.136 136.192c42.331 39.96 68.684 96.455 68.684 159.105 0 2.025-0.028 4.044-0.082 6.056l0.006-0.297c0.087 2.254 0.136 4.901 0.136 7.559 0 61.98-26.861 117.686-69.577 156.112l-0.191 0.169 95.232 158.208c20.368-5.288 43.803-8.447 67.934-8.703l0.162-0.001c1.294-0.028 2.818-0.045 4.346-0.045 35.849 0 69.613 8.921 99.196 24.663l-1.142-0.555c48.477 27.452 82.267 75.979 89.008 132.8l0.080 0.832h172.032c6.609-56.534 39.137-104.295 85.203-131.649l0.813-0.447c28.597-16.125 62.786-25.625 99.194-25.625 1.127 0 2.253 0.009 3.376 0.027l-0.17-0.002c27.363 0.209 53.805 3.745 79.067 10.221l-2.267-0.493 96.768-159.232c-46.632-38.824-76.478-96.436-77.82-161.054l-0.004-0.226c1.658-65.044 30.952-122.931 76.53-162.586l0.27-0.23zM512 634.368c-102.928 0-186.368-83.44-186.368-186.368s83.44-186.368 186.368-186.368c102.928 0 186.368 83.44 186.368 186.368v0c0 102.928-83.44 186.368-186.368 186.368v0zM579.584 330.752c-19.387-11.385-42.7-18.109-67.584-18.109-74.651 0-135.168 60.517-135.168 135.168s60.517 135.168 135.168 135.168c74.585 0 135.060-60.409 135.168-134.969v-0.010c0-0.056 0-0.123 0-0.189 0-49.768-26.896-93.253-66.946-116.714l-0.638-0.345z" />
<glyph unicode="&#xe90c;" glyph-name="security-setting" d="M347.672 481.646c-4.144 3.359-9.481 5.393-15.294 5.393-13.465 0-24.381-10.916-24.381-24.381 0-6.905 2.871-13.14 7.484-17.576l0.008-0.008 156.038-137.021 237.958 220.404c4.076 4.347 6.579 10.21 6.579 16.659 0 13.465-10.916 24.381-24.381 24.381-5.841 0-11.202-2.054-15.4-5.478l0.044 0.035-205.775-189.196zM929.402 813.714c-147.433 6.834-282.49 54.515-395.639 131.884l2.618-1.69-24.381 16.091-24.381-16.091c-109.705-75.254-243.681-122.867-388.291-130.122l-1.805-0.072h-48.762v-349.623c0-255.025 186.27-473.478 454.461-531.017h18.53c255.441 47.501 447.238 265.726 453.473 529.874l0.012 0.656v350.11zM926.476 463.604c0-230.644-168.716-428.617-414.476-483.23-233.087 43.009-408.274 241.778-414.463 482.583l-0.013 0.648v301.349c155.38 7.248 297.767 57.227 417.309 138.347l-2.833-1.813c116.726-79.262 259.102-129.232 412.66-136.465l1.816-0.068z" />
<glyph unicode="&#xe90e;" glyph-name="problems" d="M512 960c-282.77 0-512-229.23-512-512s229.23-512 512-512c282.77 0 512 229.23 512 512v0c0 282.77-229.23 512-512 512v0zM545.792 206.848c-10.11-9.402-23.709-15.172-38.656-15.172s-28.546 5.77-38.691 15.204l0.035-0.032c-9.533 9.77-15.414 23.142-15.414 37.888s5.881 28.118 15.425 37.899l-0.011-0.011c9.704 9.201 22.846 14.859 37.31 14.859 0.383 0 0.765-0.004 1.147-0.012l-0.057 0.001c0.446 0.013 0.971 0.020 1.497 0.020 14.662 0 28.003-5.654 37.962-14.9l-0.035 0.032c10.405-9.409 16.915-22.957 16.915-38.026 0-0.492-0.007-0.981-0.021-1.47l0.002 0.072c-0.629-14.518-7.212-27.383-17.351-36.303l-0.057-0.049zM648.192 479.232c-6.144-7.168-26.624-26.112-60.416-55.296-11.621-9.604-21.088-21.362-27.875-34.711l-0.285-0.617c-6.779-13.039-10.755-28.471-10.755-44.831 0-0.259 0.001-0.518 0.003-0.777v0.040-9.728h-81.92v9.728c-0.057 1.539-0.089 3.348-0.089 5.163 0 23.242 5.322 45.241 14.813 64.845l-0.388-0.888c23.105 33.588 50.194 62.306 81.068 86.4l0.852 0.64 8.192 9.728c11.771 13.561 18.945 31.388 18.945 50.89 0 0.109 0 0.218-0.001 0.327v-0.017c0.054 1.075 0.085 2.335 0.085 3.602 0 19.696-7.414 37.66-19.604 51.254l0.064-0.072c-13.466 12.181-31.408 19.635-51.091 19.635-1.84 0-3.664-0.065-5.472-0.193l0.243 0.014c-2.291 0.254-4.947 0.399-7.637 0.399-23.776 0-44.905-11.333-58.28-28.892l-0.131-0.179c-11.094-17.341-17.683-38.493-17.683-61.183 0-2.793 0.1-5.562 0.296-8.305l-0.021 0.368h-80.384c-0.195 2.964-0.306 6.427-0.306 9.915 0 43.788 17.506 83.487 45.901 112.481l-0.027-0.028c29.937 28.051 70.311 45.281 114.709 45.281 3.054 0 6.089-0.082 9.103-0.243l-0.42 0.018c2.44 0.133 5.296 0.209 8.17 0.209 39.327 0 75.334-14.211 103.167-37.778l-0.234 0.193c25.964-23.432 42.213-57.203 42.213-94.77 0-2.684-0.083-5.349-0.246-7.993l0.018 0.362c0.048-1.373 0.076-2.985 0.076-4.605 0-30.317-9.617-58.388-25.966-81.329l0.291 0.429z" />
<glyph unicode="&#xe90f;" d="M915.549 261.818c0-154.238-125.035-279.273-279.273-279.273s-279.273 125.035-279.273 279.273c0 154.238 125.035 279.273 279.273 279.273s279.273-125.035 279.273-279.273z" />
<glyph unicode="&#xe910;" d="M506.88 298.124c-0.41 0.011-0.893 0.018-1.378 0.018-14.456 0-27.585-5.681-37.276-14.932l0.021 0.020c-9.517-9.795-15.386-23.179-15.386-37.935s5.868-28.14 15.398-37.947l-0.013 0.013c10.145-9.3 23.723-15 38.633-15s28.488 5.699 38.675 15.038l-0.042-0.038c10.044 9.373 16.304 22.689 16.304 37.466 0 0.41-0.005 0.819-0.014 1.227l0.001-0.061c0.009 0.357 0.014 0.778 0.014 1.2 0 14.448-5.877 27.523-15.371 36.964l-0.002 0.002c-9.804 8.705-22.786 14.022-37.010 14.022-0.898 0-1.791-0.021-2.679-0.063l0.125 0.005z" />
<glyph unicode="&#xe911;" d="M519.913 704c-1.986 0.084-4.316 0.132-6.658 0.132-45.125 0-86.095-17.788-116.281-46.734l0.059 0.056c-28.922-29.036-46.803-69.089-46.803-113.318 0-3.2 0.094-6.378 0.278-9.532l-0.020 0.435h80.524c-0.242 2.798-0.38 6.055-0.38 9.344 0 22.97 6.736 44.366 18.341 62.321l-0.273-0.451c13.583 17.335 34.52 28.37 58.034 28.37 2.84 0 5.642-0.161 8.398-0.474l-0.337 0.031c1.53 0.109 3.316 0.172 5.116 0.172 19.734 0 37.718-7.488 51.268-19.778l-0.064 0.057c12.183-13.536 19.635-31.542 19.635-51.288 0-1.279-0.031-2.55-0.093-3.814l0.007 0.178c-0.353-19.125-7.519-36.512-19.164-49.898l0.081 0.095-8.378-9.775c-32.007-25.344-59.277-54.834-81.512-87.985l-0.873-1.382c-8.883-18.515-14.072-40.25-14.072-63.198 0-2.001 0.039-3.992 0.118-5.974l-0.009 0.285v-9.775h80.989v9.775c-0.009 0.507-0.015 1.105-0.015 1.705 0 16.36 3.963 31.794 10.98 45.396l-0.26-0.555c7.012 13.966 16.401 25.736 27.756 35.235l0.171 0.14c33.978 29.324 53.993 46.545 60.509 55.389 16.356 22.578 26.162 50.832 26.162 81.375 0 1.828-0.035 3.649-0.105 5.46l0.008-0.261c0.103 1.913 0.161 4.152 0.161 6.405 0 37.717-16.373 71.609-42.398 94.959l-0.119 0.105c-27.476 23.020-63.207 37.001-102.203 37.001-3.016 0-6.013-0.084-8.988-0.249l0.413 0.018z" />
<glyph unicode="&#xe912;" d="M512 960c-282.77 0-512-229.23-512-512s229.23-512 512-512c282.77 0 512 229.23 512 512v0c0 282.77-229.23 512-512 512v0zM512 29.091c-231.357 0-418.909 187.552-418.909 418.909s187.552 418.909 418.909 418.909c231.357 0 418.909-187.552 418.909-418.909v0c0-231.357-187.552-418.909-418.909-418.909v0z" />
<glyph unicode="&#xe913;" d="M651.636 285.091c0-154.495-123.368-279.738-275.549-279.738s-275.549 125.243-275.549 279.738c0 154.495 123.368 279.738 275.549 279.738s275.549-125.243 275.549-279.738z" />
<glyph unicode="&#xe914;" d="M605.091 594.618c28.783-0.011 52.112-23.346 52.112-52.131 0-28.791-23.34-52.131-52.131-52.131-28.3 0-51.333 22.55-52.111 50.663l-0.002 0.072c-0.005 0.278-0.008 0.605-0.008 0.933 0 28.887 23.288 52.336 52.115 52.594h0.025zM605.091 687.709c-80.46-0.002-145.684-65.227-145.684-145.687s65.226-145.687 145.687-145.687c80.134 0 145.156 64.697 145.684 144.706v0.050c0.004 0.415 0.007 0.906 0.007 1.397 0 80.204-65.018 145.222-145.222 145.222-0.166 0-0.332 0-0.498-0.001h0.026z" />
<glyph unicode="&#xe915;" d="M837.818 168.727h-11.171c-19.025 0.544-34.901 13.416-39.954 30.883l-0.075 0.302c-13.525 39.298-50.011 67.103-93.045 67.491h-175.522c-43.080-0.387-79.566-28.193-92.882-66.794l-0.209-0.697c-5.128-17.77-21.004-30.642-39.968-31.184l-0.061-0.001h-12.567c-22.795 0.11-41.232 18.614-41.232 41.425 0 4.147 0.609 8.152 1.744 11.93l-0.076-0.293c23.659 81.264 97.461 139.641 184.899 139.641 0.451 0 0.902-0.002 1.352-0.005h174.476c0.381 0.003 0.832 0.004 1.283 0.004 87.437 0 161.24-58.377 184.559-138.282l0.34-1.359c1.069-3.501 1.684-7.525 1.684-11.692 0-22.879-18.547-41.425-41.425-41.425-0.756 0-1.508 0.020-2.254 0.060l0.104-0.004z" />
<glyph unicode="&#xe916;" d="M977.455 913.455h-837.818c-25.706 0-46.545-20.839-46.545-46.545v0-139.636h-46.545c-25.706 0-46.545-20.839-46.545-46.545s20.839-46.545 46.545-46.545v0h46.545v-139.636h-46.545c-25.706 0-46.545-20.839-46.545-46.545s20.839-46.545 46.545-46.545v0h46.545v-139.636h-46.545c-25.706 0-46.545-20.839-46.545-46.545s20.839-46.545 46.545-46.545v0h46.545v-139.636c0-25.706 20.839-46.545 46.545-46.545v0h837.818c25.706 0 46.545 20.839 46.545 46.545v0 837.818c0 25.706-20.839 46.545-46.545 46.545v0zM930.909 75.636h-744.727v93.091c25.706 0 46.545 20.839 46.545 46.545s-20.839 46.545-46.545 46.545v0 139.636c25.706 0 46.545 20.839 46.545 46.545s-20.839 46.545-46.545 46.545v0 139.636c25.706 0 46.545 20.839 46.545 46.545s-20.839 46.545-46.545 46.545v0 93.091h744.727z" />
<glyph unicode="&#xe917;" glyph-name="not-checked" d="M512 908.8c254.493 0 460.8-206.307 460.8-460.8s-206.307-460.8-460.8-460.8c-254.493 0-460.8 206.307-460.8 460.8v0c0 254.493 206.307 460.8 460.8 460.8v0zM512 960c-282.77 0-512-229.23-512-512s229.23-512 512-512c282.77 0 512 229.23 512 512v0c0 282.77-229.23 512-512 512v0z" />
<glyph unicode="&#xe918;" glyph-name="new4" d="M0 960v-1024h1024v1024zM843.776 649.728l-439.296-439.808c-4.64-4.677-11.070-7.572-18.176-7.572s-13.536 2.895-18.174 7.571l-0.002 0.002-187.904 186.88c-4.652 4.652-7.529 11.078-7.529 18.176 0 14.196 11.508 25.705 25.705 25.705 7.098 0 13.524-2.877 18.176-7.529l169.472-169.472 421.376 421.376c4.652 4.652 11.078 7.529 18.176 7.529 14.196 0 25.705-11.508 25.705-25.705 0-7.098-2.877-13.524-7.529-18.176v0z" />
<glyph unicode="&#xe919;" glyph-name="new3" d="M0 960h1024v-1024h-1024v1024zM198.656 415.744l187.392-187.392 439.808 439.296" />
<glyph unicode="&#xe91a;" glyph-name="new2" d="M0 960h1024v-1024h-1024v1024z" />
<glyph unicode="&#xe91c;" horiz-adv-x="1022" d="M998.504 399.558c0-193.036-156.487-349.523-349.523-349.523s-349.523 156.487-349.523 349.523c0 193.036 156.487 349.523 349.523 349.523s349.523-156.487 349.523-349.523z" />
<glyph unicode="&#xe91d;" horiz-adv-x="1022" d="M509.914 863.116c230.414 0 417.202-186.788 417.202-417.202s-186.788-417.202-417.202-417.202c-230.414 0-417.202 186.788-417.202 417.202v0c0 230.414 186.788 417.202 417.202 417.202v0zM509.914 955.828c-281.618 0-509.914-228.296-509.914-509.914s228.296-509.914 509.914-509.914c281.618 0 509.914 228.296 509.914 509.914v0c0 281.618-228.296 509.914-509.914 509.914v0z" />
<glyph unicode="&#xe91e;" horiz-adv-x="1022" d="M411.64 677.693l98.274-195.158 98.274 195.622h92.712l-125.161-228.071h82.977v-42.647h-108.009v-53.773h108.009v-42.647h-108.009v-97.347h-81.586v97.347h-107.082v42.647h107.082v54.7h-107.082v41.72h82.050l-124.234 227.607z" />
<glyph unicode="&#xe91f;" glyph-name="history-infos" d="M948.736 834.048v-822.272h-874.496v823.808h874.496zM948.736 886.784h-874.496c-26.313-1.325-47.315-22.327-48.635-48.518l-0.005-0.122v-827.904c1.325-26.313 22.327-47.315 48.518-48.635l0.122-0.005h875.52c26.313 1.325 47.315 22.327 48.635 48.518l0.005 0.122v824.832c-1.325 26.313-22.327 47.315-48.518 48.635l-0.122 0.005zM294.4 781.824c-0.002 0-0.003 0-0.005 0-13.676 0-24.796 10.942-25.082 24.549v102.427c0 14.138 11.462 25.6 25.6 25.6s25.6-11.462 25.6-25.6v0-102.4c-0.275-13.643-11.4-24.597-25.083-24.597-0.362 0-0.722 0.008-1.080 0.023l0.051-0.002zM755.2 781.824c-0.002 0-0.003 0-0.005 0-13.676 0-24.796 10.942-25.082 24.549v102.427c0 14.138 11.462 25.6 25.6 25.6s25.6-11.462 25.6-25.6v0-102.4c-0.275-13.643-11.4-24.597-25.083-24.597-0.362 0-0.722 0.008-1.080 0.023l0.051-0.002zM512 629.248c128.094 0 231.935-103.841 231.935-231.936s-103.841-231.936-231.936-231.936c-127.915 0-231.644 103.55-231.935 231.396v0.028c0 0.152-0.001 0.332-0.001 0.512 0 128.095 103.841 231.936 231.936 231.936 0 0 0 0 0 0v0zM512 680.448c-155.52-0.004-281.593-126.079-281.593-281.6 0-155.523 126.077-281.6 281.6-281.6 154.803 0 280.432 124.912 281.592 279.442l0.001 0.11c0 0.152 0 0.332 0 0.512 0 155.523-126.077 281.6-281.6 281.6 0 0 0 0-0.001 0v0zM601.6 282.624c-0.101-0.001-0.219-0.002-0.338-0.002-3.981 0-7.741 0.947-11.067 2.627l0.141-0.064-116.224 60.416v166.912c0 14.138 11.462 25.6 25.6 25.6s25.6-11.462 25.6-25.6v0-138.24l88.576-44.032c7.851-4.342 13.079-12.574 13.079-22.027 0-13.594-10.812-24.662-24.305-25.076l-0.038-0.001z" />
<glyph unicode="&#xe920;" d="M694.458 571.345c-0.934 0.010-2.038 0.016-3.143 0.016-166.577 0-301.615-135.037-301.615-301.615 0-97.424 46.19-184.059 117.866-239.201l0.71-0.525h358.4c6.292 0.065 12.209 1.605 17.442 4.292l-0.22-0.103 14.895 13.033c4.727 6.14 7.663 13.875 7.911 22.285l0.001 0.057v414.255c-54.53 53.917-129.47 87.29-212.206 87.505h-0.042z" />
<glyph unicode="&#xe921;" d="M861.091-17.455h-698.182c-51.413 0-93.091 41.678-93.091 93.091v0 698.182c0 51.413 41.678 93.091 93.091 93.091v0h120.087c25.706 0 46.545-20.839 46.545-46.545s-20.839-46.545-46.545-46.545v0h-120.087v-698.182h698.182v698.182h-116.364c-25.706 0-46.545 20.839-46.545 46.545s20.839 46.545 46.545 46.545v0h116.364c51.413 0 93.091-41.678 93.091-93.091v0-698.182c0-51.413-41.678-93.091-93.091-93.091v0z" />
<glyph unicode="&#xe922;" d="M599.971 820.364h-175.942c-25.706 0-46.545 20.839-46.545 46.545s20.839 46.545 46.545 46.545v0h175.942c25.706 0 46.545-20.839 46.545-46.545s-20.839-46.545-46.545-46.545v0z" />
<glyph unicode="&#xe923;" d="M525.498 508.509h-219.695c-25.706 0-46.545 20.839-46.545 46.545s20.839 46.545 46.545 46.545v0h219.695c25.706 0 46.545-20.839 46.545-46.545s-20.839-46.545-46.545-46.545v0z" />
<glyph unicode="&#xe924;" d="M744.727 245.993h-438.924c-25.706 0-46.545 20.839-46.545 46.545s20.839 46.545 46.545 46.545v0h438.924c25.706 0 46.545-20.839 46.545-46.545s-20.839-46.545-46.545-46.545v0z" />
<glyph unicode="&#xe925;" glyph-name="file" d="M292.571-64c-77.178 3.645-146.108 36.218-196.746 87.032l-0.008 0.008c-59.634 61.849-96.372 146.126-96.372 238.984 0 86.764 32.075 166.037 85.014 226.608l-0.345-0.403 297.691 341.577c5.611 5.918 13.53 9.6 22.309 9.6s16.697-3.682 22.296-9.586l0.013-0.014c5.653-6.005 9.126-14.117 9.126-23.040s-3.474-17.035-9.142-23.057l0.016 0.017-295.497-335.726c-41.746-48.63-67.159-112.338-67.159-181.982 0-74.269 28.901-141.787 76.071-191.922l-0.134 0.144c42.67-44.444 102.578-72.059 168.936-72.059 70.193 0 133.169 30.899 176.069 79.837l0.23 0.268 431.543 495.909c27.973 34.096 44.929 78.164 44.929 126.191 0 54.213-21.604 103.379-56.673 139.36l0.041-0.042c-30.706 31.404-73.502 50.877-120.846 50.877-49.811 0-94.588-21.555-125.512-55.846l-0.133-0.15-408.869-469.577c-13.774-17.971-22.073-40.772-22.073-65.51 0-29.095 11.478-55.509 30.154-74.961l-0.035 0.037c16.239-16.735 38.941-27.121 64.068-27.121 1.134 0 2.262 0.021 3.385 0.063l-0.162-0.005c25.197 0.075 47.965 10.413 64.355 27.052l0.011 0.011 365.714 419.109c5.611 5.918 13.53 9.6 22.309 9.6s16.697-3.682 22.296-9.586l0.013-0.014c5.653-6.005 9.126-14.117 9.126-23.040s-3.474-17.035-9.142-23.057l0.016 0.017-360.594-415.451c-27.735-31.218-67.986-50.791-112.81-50.791-41.645 0-79.345 16.896-106.617 44.206l-0.002 0.002c-31.377 31.591-50.77 75.12-50.77 123.178 0 41.898 14.74 80.353 39.316 110.463l-0.249-0.315 403.017 468.846c42.859 48.88 105.43 79.573 175.17 79.573 64.466 0 122.806-26.226 164.934-68.591l0.010-0.010c46.919-48.173 75.855-114.061 75.855-186.707 0-64.534-22.835-123.734-60.865-169.962l0.369 0.463-435.2-496.64c-52.459-60.891-128.456-100.248-213.703-103.843l-0.606-0.020z" />
<glyph unicode="&#xe926;" d="M951.652 781.913h-367.304l44.522 63.443c7.999 12.020 21.43 19.874 36.706 20.035h262.702c12.294 0 22.261-9.967 22.261-22.261v0l1.113-61.217z" />
<glyph unicode="&#xe927;" d="M628.87 391.235c44.967 54.503 112.503 88.994 188.096 89.043h0.008c50.081-0.283 96.623-15.189 135.642-40.66l-0.964 0.59v213.704h-951.652v-585.461c0-12.294 9.967-22.261 22.261-22.261v0h640c-54.764 45.245-89.4 113.169-89.4 189.183 0 59.402 21.152 113.864 56.334 156.265l-0.326-0.404z" />
<glyph unicode="&#xe928;" d="M951.652 781.913h-849.252c-0.266 0.003-0.58 0.004-0.895 0.004-52.939 0-96.454-40.348-101.472-91.969l-0.033-0.417h951.652z" />
<glyph unicode="&#xe929;" d="M824.765 431.304c-0.331 0.002-0.722 0.003-1.113 0.003-110.649 0-200.348-89.699-200.348-200.348s89.699-200.348 200.348-200.348c110.648 0 200.346 89.697 200.348 200.345v0c0 0.001 0 0.002 0 0.003 0 110.258-89.065 199.713-199.175 200.344h-0.060zM710.122 199.791c-0.332-0.013-0.722-0.020-1.113-0.020-17.212 0-31.165 13.953-31.165 31.165s13.953 31.165 31.165 31.165c17.205 0 31.154-13.942 31.165-31.144v-0.001c0.003-0.167 0.005-0.364 0.005-0.561 0-16.711-13.391-30.294-30.028-30.603h-0.029zM824.765 199.791c-0.332-0.013-0.722-0.020-1.113-0.020-17.212 0-31.165 13.953-31.165 31.165s13.953 31.165 31.165 31.165c17.205 0 31.154-13.942 31.165-31.144v-0.001c0.003-0.167 0.005-0.364 0.005-0.561 0-16.711-13.391-30.294-30.028-30.603h-0.029zM939.409 199.791c-0.332-0.013-0.722-0.020-1.113-0.020-17.212 0-31.165 13.953-31.165 31.165s13.953 31.165 31.165 31.165c17.205 0 31.154-13.942 31.165-31.144v-0.001c0.003-0.167 0.005-0.364 0.005-0.561 0-16.711-13.391-30.294-30.028-30.603h-0.029z" />
<glyph unicode="&#xe92a;" glyph-name="download" d="M935.098 5.818h-846.196c0 0-0.001 0-0.001 0-48.935 0-88.636 39.538-88.9 88.411v293.727c0 25.706 20.839 46.545 46.545 46.545s46.545-20.839 46.545-46.545v0-289.047h837.818v289.047c0 25.706 20.839 46.545 46.545 46.545s46.545-20.839 46.545-46.545v0-293.702c-0.264-48.899-39.965-88.436-88.901-88.436 0 0-0.001 0-0.001 0v0zM512 252.044c-0.080 0-0.174-0.001-0.269-0.001-12.786 0-24.369 5.156-32.781 13.502l0.003-0.003-168.96 168.495c-6.956 8.086-11.192 18.686-11.192 30.276 0 25.706 20.839 46.545 46.545 46.545 11.59 0 22.19-4.236 30.337-11.244l-0.061 0.052 136.378-135.447 136.378 135.447c8.416 8.358 20.012 13.524 32.815 13.524 25.721 0 46.572-20.851 46.572-46.572 0-12.918-5.26-24.608-13.754-33.045l-0.003-0.003-169.425-168.495c-8.358-8.065-19.75-13.034-32.302-13.034-0.098 0-0.197 0-0.295 0.001h0.015zM512 320.931c-25.706 0-46.545 20.839-46.545 46.545v0 476.16c0 25.706 20.839 46.545 46.545 46.545s46.545-20.839 46.545-46.545v0-476.16c0-25.706-20.839-46.545-46.545-46.545v0z" />
<glyph unicode="&#xe92b;" d="M693.062 269.265c-0.737 205.092-167.166 371.067-372.361 371.067-76.049 0-146.773-22.798-205.711-61.932l1.374 0.858v-512c0-0.001 0-0.002 0-0.003 0-21.944 17.657-39.764 39.539-40.026h449.189c54.705 64.403 87.975 148.501 87.975 240.37 0 0.586-0.001 1.171-0.004 1.757v-0.090z" />
<glyph unicode="&#xe92c;" d="M868.073-17.455h-712.145c-47.613 0.264-86.109 38.923-86.109 86.573 0 0 0 0.001 0 0.001v0 712.145c0.524 47.251 38.82 85.384 86.084 85.644h127.094c25.706 0 46.545-20.839 46.545-46.545s-20.839-46.545-46.545-46.545v0h-120.087v-698.182h698.182v698.182h-116.364c-25.706 0-46.545 20.839-46.545 46.545s20.839 46.545 46.545 46.545v0h121.484c0.417 0.007 0.909 0.011 1.401 0.011 47.49 0 86.050-38.238 86.569-85.606v-712.194c0 0 0-0.001 0-0.001 0-47.65-38.496-86.309-86.084-86.573h-0.025zM868.073 773.818v0z" />
<glyph unicode="&#xe92d;" d="M599.971 820.364h-175.942c-25.706 0-46.545 20.839-46.545 46.545s20.839 46.545 46.545 46.545v0h175.942c25.706 0 46.545-20.839 46.545-46.545s-20.839-46.545-46.545-46.545v0z" />
<glyph unicode="&#xe92e;" d="M448.698 245.527c-13.609 0.426-25.689 6.63-33.926 16.229l-0.052 0.062-112.175 118.691c-7.67 8.375-12.369 19.581-12.369 31.884 0 26.111 21.167 47.278 47.278 47.278 13.808 0 26.233-5.919 34.877-15.359l0.032-0.036 78.196-83.782 224.349 242.502c8.587 9.652 21.041 15.703 34.909 15.703 25.767 0 46.655-20.888 46.655-46.655 0-11.899-4.455-22.758-11.787-31l0.041 0.047-260.189-279.273c-8.588-9.999-21.246-16.293-35.373-16.293-0.164 0-0.328 0.001-0.492 0.003h0.025z" />
<glyph unicode="&#xe92f;" d="M837.818 562.036c-0.952 0.009-2.077 0.015-3.204 0.015-193.312 0-350.022-156.71-350.022-350.022 0-67.681 19.209-130.875 52.473-184.428l-0.862 1.489h325.818c25.706 0 46.545 20.839 46.545 46.545v0 478.953c-21.228 4.643-45.645 7.35-70.678 7.447h-0.071z" />
<glyph unicode="&#xe930;" d="M861.091-17.455h-698.182c-51.413 0-93.091 41.678-93.091 93.091v0 744.727c0 51.413 41.678 93.091 93.091 93.091v0h698.182c51.413 0 93.091-41.678 93.091-93.091v0-744.727c0-51.413-41.678-93.091-93.091-93.091v0zM162.909 820.364v-744.727h698.182v744.727z" />
<glyph unicode="&#xe931;" d="M768 546.676h-512c-25.706 0-46.545 20.839-46.545 46.545v0 128c0 25.706 20.839 46.545 46.545 46.545v0h512c25.706 0 46.545-20.839 46.545-46.545v0-128c0-25.706-20.839-46.545-46.545-46.545v0zM302.545 639.767h418.909v34.909h-418.909z" />
<glyph unicode="&#xe932;" d="M302.545 448h139.636c12.853 0 23.273-10.42 23.273-23.273v-46.545c0-12.853-10.42-23.273-23.273-23.273h-139.636c-12.853 0-23.273 10.42-23.273 23.273v46.545c0 12.853 10.42 23.273 23.273 23.273z" />
<glyph unicode="&#xe933;" d="M581.818 448h139.636c12.853 0 23.273-10.42 23.273-23.273v-46.545c0-12.853-10.42-23.273-23.273-23.273h-139.636c-12.853 0-23.273 10.42-23.273 23.273v46.545c0 12.853 10.42 23.273 23.273 23.273z" />
<glyph unicode="&#xe934;" d="M302.545 261.818h139.636c12.853 0 23.273-10.42 23.273-23.273v-46.545c0-12.853-10.42-23.273-23.273-23.273h-139.636c-12.853 0-23.273 10.42-23.273 23.273v46.545c0 12.853 10.42 23.273 23.273 23.273z" />
<glyph unicode="&#xe935;" d="M581.818 261.818h139.636c12.853 0 23.273-10.42 23.273-23.273v-46.545c0-12.853-10.42-23.273-23.273-23.273h-139.636c-12.853 0-23.273 10.42-23.273 23.273v46.545c0 12.853 10.42 23.273 23.273 23.273z" />
<glyph unicode="&#xe936;" glyph-name="contract" d="M341.504-12.8h-268.288c-0.013 0-0.029 0-0.045 0-39.536 0-71.753 31.337-73.168 70.527l-0.004 0.129v828.928c0 40.436 32.78 73.216 73.216 73.216v0h780.288c40.436 0 73.216-32.78 73.216-73.216v0-221.184c0-14.138-11.462-25.6-25.6-25.6s-25.6 11.462-25.6 25.6v0 221.184c-1.195 11.647-10.369 20.821-21.911 22.007l-0.105 0.009h-780.288c-11.647-1.195-20.821-10.369-22.007-21.911l-0.009-0.105v-828.928c0-13.573 11.003-24.576 24.576-24.576v0h265.728c14.138 0 25.6-11.462 25.6-25.6s-11.462-25.6-25.6-25.6v0zM536.576 691.712h-341.504c-14.138 0-25.6 11.462-25.6 25.6s11.462 25.6 25.6 25.6v0h341.504c14.138 0 25.6-11.462 25.6-25.6s-11.462-25.6-25.6-25.6v0zM390.144 499.2h-195.072c-14.138 0-25.6 11.462-25.6 25.6s11.462 25.6 25.6 25.6v0h195.072c14.138 0 25.6-11.462 25.6-25.6s-11.462-25.6-25.6-25.6v0zM292.352 326.144h-97.28c-14.138 0-25.6 11.462-25.6 25.6s11.462 25.6 25.6 25.6v0h97.28c14.138 0 25.6-11.462 25.6-25.6s-11.462-25.6-25.6-25.6v0zM707.072-64c-175.035 0-316.928 141.893-316.928 316.928s141.893 316.928 316.928 316.928c175.035 0 316.928-141.893 316.928-316.928v0c-0.291-174.917-142.010-316.637-316.9-316.928h-0.028zM707.072 521.216c-0.761 0.008-1.66 0.012-2.56 0.012-148.171 0-268.288-120.117-268.288-268.288s120.117-268.288 268.288-268.288c148.167 0 268.281 120.11 268.288 268.275v0.001c0 0.004 0 0.008 0 0.012 0 147.271-118.662 266.828-265.591 268.275l-0.137 0.001zM829.952 69.12l-122.88 64.512-122.88-64.512 23.552 136.704-99.328 97.28 137.216 19.968 61.44 124.928 60.928-125.44 137.216-19.968-99.328-96.768zM707.072 188.928l57.856-30.72-11.264 64.512 47.104 45.568-65.024 9.216-29.184 58.88-29.184-58.88-62.976-8.704 47.104-45.568-11.264-64.512z" />
<glyph unicode="&#xe938;" glyph-name="checked" d="M512 960c-282.77 0-512-229.23-512-512s229.23-512 512-512c282.77 0 512 229.23 512 512v0c0 282.77-229.23 512-512 512v0zM799.744 582.656l-349.184-322.56-225.792 198.656c-5.798 4.867-9.457 12.118-9.457 20.224 0 14.554 11.799 26.353 26.353 26.353 6.449 0 12.356-2.316 16.937-6.162l-0.041 0.033 190.976-168.448 314.88 291.328c4.684 4.996 11.324 8.108 18.692 8.108 14.138 0 25.6-11.462 25.6-25.6 0-8.006-3.675-15.153-9.43-19.848l-0.046-0.037z" />
<glyph unicode="&#xe93a;" d="M630.784 268.8c0-169.945-135.704-307.712-303.104-307.712s-303.104 137.767-303.104 307.712c0 169.945 135.704 307.712 303.104 307.712s303.104-137.767 303.104-307.712z" />
<glyph unicode="&#xe93b;" d="M908.288-64h-805.888c-56.554 0-102.4 45.846-102.4 102.4v0 819.2c0 56.554 45.846 102.4 102.4 102.4v0h409.6c28.277 0 51.2-22.923 51.2-51.2v0c0-28.277-22.923-51.2-51.2-51.2v0h-409.6v-819.2h805.888v250.88c0 28.277 22.923 51.2 51.2 51.2s51.2-22.923 51.2-51.2v0-250.88c0-56.554-45.846-102.4-102.4-102.4v0z" />
<glyph unicode="&#xe93c;" d="M1010.688 775.168l-153.6 153.6c-7.936 8.143-18.982 13.222-31.215 13.312h-0.017c-0.053 0-0.116 0-0.179 0-10.545 0-20.085-4.308-26.953-11.261l-0.004-0.004-465.92-475.136c-6.791-6.852-11.053-16.221-11.263-26.584l-0.001-0.040-4.608-158.208c-0.008-0.308-0.012-0.671-0.012-1.035 0-24.528 19.599-44.478 43.991-45.044l0.053-0.001 153.6 5.12c10.237 0.238 19.434 4.5 26.108 11.26l467.972 475.14c7.966 7.733 12.909 18.542 12.909 30.505 0 10.924-4.122 20.886-10.895 28.414l0.034-0.039zM491.52 330.24h-72.704v73.728l274.432 278.528 74.752-73.728zM836.608 680.96l-68.608 71.168 61.44 64 70.656-71.68z" />
<glyph unicode="&#xe93d;" glyph-name="cash-setting" d="M984.576 566.784c-12.013-2.264-20.979-12.675-20.979-25.179 0-1.78 0.182-3.517 0.527-5.194l-0.028 0.165c5.468-26.638 8.598-57.253 8.598-88.6 0-252.835-203.628-458.11-455.833-460.774l-0.253-0.002h-4.608c-254.217 0.365-460.159 206.532-460.159 460.8 0 254.493 206.307 460.8 460.8 460.8 62.909 0 122.875-12.607 177.507-35.431l-3.044 1.128c3.475-1.88 7.607-2.985 11.997-2.985 14.138 0 25.6 11.462 25.6 25.6 0 11.478-7.553 21.191-17.96 24.441l-0.181 0.049c-58.429 24.295-126.299 38.405-197.464 38.405-0.779 0-1.558-0.002-2.336-0.005h0.12c-281.67-1.454-509.446-230.127-509.446-512 0-282.773 229.233-512.006 512.006-512.006 0.9 0 1.8 0.002 2.699 0.007l-0.139-0.001h5.12c280.571 2.881 506.906 230.996 506.906 511.975 0 1.809-0.009 3.616-0.028 5.421l0.002-0.275c-0.276 33.128-3.618 65.3-9.755 96.468l0.539-3.284c-2.513 12.005-13.011 20.892-25.585 20.892-1.634 0-3.233-0.15-4.784-0.437l0.161 0.025zM683.52 670.72c-4.64 4.677-11.070 7.572-18.176 7.572s-13.536-2.895-18.174-7.571l-135.17-135.17-135.68 135.168c-4.652 4.652-11.078 7.529-18.176 7.529-14.196 0-25.705-11.508-25.705-25.705 0-7.098 2.877-13.524 7.529-18.176v0l135.68-135.168h-117.248c-14.138 0-25.6-11.462-25.6-25.6s11.462-25.6 25.6-25.6v0h128v-76.8h-128c-14.138 0-25.6-11.462-25.6-25.6s11.462-25.6 25.6-25.6v0h128v-76.8c0-14.138 11.462-25.6 25.6-25.6s25.6 11.462 25.6 25.6v0 76.8h128c14.138 0 25.6 11.462 25.6 25.6s-11.462 25.6-25.6 25.6v0h-128v76.8h128c14.138 0 25.6 11.462 25.6 25.6s-11.462 25.6-25.6 25.6v0h-117.248l135.68 135.68c4.374 4.584 7.066 10.807 7.066 17.659 0 7.109-2.897 13.541-7.576 18.179l-0.002 0.002zM793.6 691.2h204.8c14.138 0 25.6 11.462 25.6 25.6s-11.462 25.6-25.6 25.6v0h-204.8c-14.138 0-25.6-11.462-25.6-25.6s11.462-25.6 25.6-25.6v0z" />
<glyph unicode="&#xe93e;" glyph-name="caculate" d="M561.28 498.56h197.12v-33.28h-197.12v33.28zM561.28 233.6h197.12v-33.28h-197.12v33.28zM561.28 167.68h197.12v-33.28h-197.12v33.28zM265.6 498.56h197.12v-33.28h-197.12v33.28zM380.8 581.76v-198.4h-32.64v198.4h32.64zM422.4 102.4l-139.52 140.16 23.68 23.68 138.88-140.8-23.040-23.040zM282.88 125.44l139.52 140.8 23.040-23.68-138.88-140.16-23.68 23.040zM870.4-64h-716.8c-49.562 0.363-89.6 40.625-89.6 90.238 0 0.001 0 0.002 0 0.002v0 843.52c0 0.001 0 0.001 0 0.002 0 49.613 40.038 89.875 89.566 90.238h716.834c49.562-0.363 89.6-40.625 89.6-90.238 0-0.001 0-0.002 0-0.002v0-843.52c0-0.001 0-0.001 0-0.002 0-49.613-40.038-89.875-89.566-90.238h-0.034zM153.6 899.84c-16.613 0-30.080-13.467-30.080-30.080v-843.52c0-16.613 13.467-30.080 30.080-30.080v0h716.8c16.613 0 30.080 13.467 30.080 30.080v0 843.52c0 16.613-13.467 30.080-30.080 30.080v0zM900.48 688.64h-776.96c-16.613 0-30.080 13.467-30.080 30.080s13.467 30.080 30.080 30.080v0h776.96c16.613 0 30.080-13.467 30.080-30.080s-13.467-30.080-30.080-30.080v0z" />
<glyph unicode="&#xe93f;" d="M964.422 285.091c0-167.091-135.454-302.545-302.545-302.545s-302.545 135.454-302.545 302.545c0 167.091 135.454 302.545 302.545 302.545s302.545-135.454 302.545-302.545z" />
<glyph unicode="&#xe940;" d="M221.556 565.76h130.793v-93.091h-130.793v93.091z" />
<glyph unicode="&#xe941;" d="M438.924 565.76h130.793v-93.091h-130.793v93.091z" />
<glyph unicode="&#xe942;" d="M221.556 730.996h130.793v-93.091h-130.793v93.091z" />
<glyph unicode="&#xe943;" d="M438.924 730.996h130.793v-93.091h-130.793v93.091z" />
<glyph unicode="&#xe944;" d="M223.418 400.058h130.793v-93.091h-130.793v93.091z" />
<glyph unicode="&#xe945;" d="M438.924 400.058h130.793v-93.091h-130.793v93.091z" />
<glyph unicode="&#xe946;" d="M977.455 75.636v435.2c0 25.706-20.839 46.545-46.545 46.545v0h-186.182v309.527c0 25.706-20.839 46.545-46.545 46.545v0h-605.091c-25.706 0-46.545-20.839-46.545-46.545v0-791.273h-46.545v-93.091h1024v93.091zM139.636 75.636v744.727h512v-744.727zM744.727 75.636v388.655h139.636v-388.655z" />
<glyph unicode="&#xe947;" glyph-name="basic-esta" d="M972.8 883.2v0-870.4h-921.6v870.4h921.6zM972.8 934.4h-921.6c-28.277 0-51.2-22.923-51.2-51.2v0-870.4c0-28.277 22.923-51.2 51.2-51.2v0h921.6c28.277 0 51.2 22.923 51.2 51.2v0 870.4c0 28.277-22.923 51.2-51.2 51.2v0zM379.904 691.2v-181.76l-65.536 24.576-18.432 6.656-18.432-6.656-64.512-24.576v181.76h166.912zM431.104 742.4h-269.312v-307.2l134.656 51.2 134.656-51.2v307.2zM862.208 665.6h-269.312c-14.138 0-25.6 11.462-25.6 25.6s11.462 25.6 25.6 25.6v0h269.312c14.138 0 25.6-11.462 25.6-25.6s-11.462-25.6-25.6-25.6v0zM862.208 479.744h-269.312c-14.138 0-25.6 11.462-25.6 25.6s11.462 25.6 25.6 25.6v0h269.312c14.138 0 25.6-11.462 25.6-25.6s-11.462-25.6-25.6-25.6v0zM862.208 128h-700.416c-14.138 0-25.6 11.462-25.6 25.6s11.462 25.6 25.6 25.6v0h700.416c14.138 0 25.6-11.462 25.6-25.6s-11.462-25.6-25.6-25.6v0z" />
<glyph unicode="&#xe948;" glyph-name="bank-account" d="M929.402 813.714c-147.436 6.807-282.499 54.492-395.635 131.883l2.614-1.689-24.381 16.091-24.381-16.091c-109.705-75.254-243.681-122.867-388.291-130.122l-1.805-0.072h-48.762v-349.623c0-255.025 186.27-473.478 454.461-531.017h19.017c255.233 47.705 446.797 265.862 452.986 529.878l0.012 0.652v350.11zM926.476 463.604c0-230.644-168.716-428.617-414.476-483.23-233.087 43.009-408.274 241.778-414.463 482.583l-0.013 0.648v301.349c155.38 7.248 297.767 57.227 417.309 138.347l-2.833-1.813c116.709-79.306 259.097-129.285 412.673-136.466l1.803-0.067zM425.691 651.825c-2.666 7.601-9.702 12.987-18.021 13.165h-0.021c-1.646 0.423-3.535 0.665-5.481 0.665-6.707 0-12.742-2.881-16.933-7.474l-0.016-0.018c-4.945-7.652-8.398-16.727-9.715-26.48l-0.037-0.339c-8.166-33.329-17.356-61.459-28.358-88.663l1.539 4.305c-12.056-29.812-26.298-55.505-43.202-79.167l0.779 1.148c-6.927-8.428-11.646-18.916-13.134-30.417l-0.032-0.303c0.283-8.322 4.869-15.512 11.592-19.445l0.111-0.060c4.346-4.070 10.205-6.569 16.649-6.569 1.179 0 2.339 0.084 3.474 0.246l-0.13-0.015c10.020 3.119 18.104 9.932 22.817 18.809l0.101 0.209v-176.030c-0.078-0.867-0.123-1.876-0.123-2.896 0-6.899 2.047-13.321 5.567-18.69l-0.080 0.13c4.397-4.327 10.435-6.999 17.097-6.999 1.020 0 2.026 0.063 3.014 0.184l-0.118-0.012q22.918 0 22.918 28.282v276.48c5.364 13.166 9.752 26.819 14.141 40.96s8.777 30.232 13.653 48.762c1.89 5.67 2.981 12.199 2.981 18.982 0 3.978-0.375 7.868-1.092 11.637l0.061-0.386zM457.387 636.221c-6.217-8.799-9.938-19.748-9.938-31.566 0-1.59 0.067-3.165 0.199-4.721l-0.014 0.203v-64.366c-0.125-1.403-0.196-3.036-0.196-4.685 0-11.925 3.722-22.981 10.069-32.069l-0.12 0.182c7.701-7.414 18.189-11.981 29.743-11.981 1.719 0 3.414 0.101 5.079 0.297l-0.202-0.019h48.762v-33.158h-95.086c-0.928 0.11-2.002 0.172-3.091 0.172-6.827 0-13.080-2.462-17.918-6.546l0.041 0.034c-3.701-4.735-5.935-10.774-5.935-17.334 0-0.764 0.030-1.521 0.090-2.269l-0.006 0.099c-0.032-0.491-0.050-1.064-0.050-1.642 0-6.646 2.417-12.727 6.42-17.412l-0.031 0.037c4.729-4.032 10.911-6.484 17.666-6.484 0.991 0 1.97 0.053 2.934 0.156l-0.12-0.010h73.63q-9.752-13.653-21.455-26.331t-22.918-23.893c-7.802-7.314-15.116-13.653-21.943-19.505l-18.042-14.141c-6.248-4.207-11.682-8.867-16.525-14.082l-0.054-0.058c-3.038-3.388-5.382-7.465-6.766-11.962l-0.060-0.228c-0.523-1.678-0.823-3.608-0.823-5.608s0.301-3.929 0.86-5.746l-0.037 0.138c1.476-4.286 3.289-7.992 5.49-11.426l-0.126 0.21c3.52-6.022 9.954-10.004 17.318-10.004 1.116 0 2.211 0.091 3.278 0.267l-0.116-0.016c12.816 2.958 23.988 8.737 33.265 16.668l-0.107-0.089q24.381 20.48 40.96 36.571c10.452 10.358 19.915 21.678 28.256 33.829l0.514 0.792v-97.524c-0.085-0.793-0.133-1.713-0.133-2.645 0-6.889 2.646-13.16 6.976-17.853l-0.016 0.018c4.955-3.982 11.322-6.391 18.251-6.391 0.612 0 1.221 0.019 1.824 0.056l-0.083-0.004c0.662-0.065 1.432-0.102 2.21-0.102 6.316 0 12.060 2.451 16.333 6.454l-0.013-0.012c3.436 4.942 5.49 11.070 5.49 17.678 0 0.986-0.046 1.962-0.135 2.925l0.009-0.123v116.541c11.245-17.391 22.966-32.522 35.834-46.587l-0.237 0.263c15.090-16.602 31.016-31.756 47.977-45.698l0.785-0.626c7.306-6.822 16.097-12.155 25.826-15.455l0.505-0.149c1.307-0.32 2.807-0.504 4.351-0.504 7.107 0 13.304 3.899 16.568 9.674l0.049 0.095c2.432 3.648 4.57 7.832 6.204 12.259l0.135 0.419c0.601 1.746 0.948 3.758 0.948 5.851s-0.347 4.105-0.987 5.982l0.039-0.13c-1.573 4.925-4.080 9.163-7.336 12.702l0.022-0.024c-4.982 5.556-10.409 10.519-16.289 14.909l-0.29 0.207c-14.19 10.742-26.754 21.605-38.581 33.216l0.059-0.058c-15.666 15.051-30.187 30.963-43.618 47.783l-0.755 0.979h81.432c0.955-0.13 2.059-0.204 3.181-0.204 6.491 0 12.401 2.487 16.829 6.559l-0.018-0.016c3.682 4.728 5.904 10.752 5.904 17.294 0 0.606-0.019 1.208-0.057 1.804l0.004-0.082c0.067 0.741 0.105 1.602 0.105 2.473 0 6.392-2.050 12.305-5.528 17.118l0.059-0.086c-4.475 4.044-10.435 6.519-16.974 6.519-1.064 0-2.112-0.066-3.142-0.193l0.123 0.012h-113.128v33.646h54.613c1.544-0.206 3.328-0.324 5.14-0.324 11.326 0 21.578 4.597 28.992 12.026l0.001 0.001c5.913 9.086 9.43 20.203 9.43 32.141 0 1.559-0.060 3.104-0.178 4.633l0.013-0.203v63.878c0.158 1.574 0.248 3.401 0.248 5.25 0 11.907-3.744 22.94-10.118 31.985l0.117-0.176c-7.633 7.095-17.898 11.448-29.179 11.448-1.573 0-3.127-0.085-4.656-0.25l0.19 0.017h-153.6c-1.36 0.149-2.936 0.235-4.533 0.235-11.656 0-22.251-4.544-30.109-11.958l0.022 0.020zM500.297 582.583c-0.080 0.604-0.126 1.303-0.126 2.012 0 3.238 0.956 6.253 2.602 8.777l-0.038-0.062c2.621 1.641 5.806 2.615 9.218 2.615 0.877 0 1.738-0.064 2.581-0.188l-0.096 0.012h107.764c5.851 0 9.752 0 11.703-3.413 1.633-3.185 2.59-6.948 2.59-10.936 0-0.958-0.055-1.902-0.163-2.831l0.011 0.113v-20.968c0.068-0.708 0.106-1.53 0.106-2.362 0-4.486-1.122-8.711-3.101-12.408l0.069 0.141c-2.397-2.479-5.753-4.017-9.468-4.017-0.616 0-1.222 0.042-1.816 0.124l0.069-0.008h-105.813c-0.514-0.055-1.111-0.086-1.714-0.086-4.186 0-8.020 1.507-10.989 4.008l0.026-0.021c-2.228 3.28-3.558 7.327-3.558 11.685 0 0.866 0.052 1.719 0.154 2.557l-0.010-0.101z" />
<glyph unicode="&#xe949;" d="M303.942 534.109c-59.679-0.065-114.909-19.061-160.023-51.303l0.837 0.569v-412.393c-0.117-1.122-0.184-2.425-0.184-3.743 0-20.653 16.404-37.474 36.893-38.146l0.062-0.002h347.695c40.383 52.963 64.701 120.068 64.701 192.853 0 0.437-0.001 0.873-0.003 1.31v-0.068c0.136 3.377 0.214 7.341 0.214 11.323 0 162.187-128.808 294.289-289.707 299.588l-0.486 0.013z" />
<glyph unicode="&#xe94a;" d="M934.167 909.731c-2.138 2.359-5.214 3.835-8.634 3.835-0.567 0-1.124-0.040-1.668-0.119l0.062 0.007h-46.545c-0.076 0.002-0.165 0.003-0.255 0.003-4.564 0-8.514-2.627-10.42-6.452l-0.030-0.067-73.076-144.291-73.076 144.291c-1.906 3.83-5.76 6.433-10.229 6.516h-46.556c-0.009 0-0.021 0-0.032 0-6.427 0-11.636-5.21-11.636-11.636 0-2.048 0.529-3.973 1.458-5.645l-0.030 0.059 87.040-162.909h-50.735c-6.427 0-11.636-5.21-11.636-11.636v0-25.135c0-6.427 5.21-11.636 11.636-11.636v0h71.215v-25.6h-71.215c-6.427 0-11.636-5.21-11.636-11.636v0-25.135c0-6.427 5.21-11.636 11.636-11.636v0h71.215v-66.095c0-6.427 5.21-11.636 11.636-11.636v0h41.425c6.427 0 11.636 5.21 11.636 11.636v0 67.025h71.68c6.427 0 11.636 5.21 11.636 11.636v0 25.6c0 6.427-5.21 11.636-11.636 11.636v0h-71.215v25.6h71.68c6.427 0 11.636 5.21 11.636 11.636v0 25.6c0 6.427-5.21 11.636-11.636 11.636v0h-50.269l87.040 162.909c0.842 1.57 1.337 3.435 1.337 5.416 0 2.308-0.672 4.458-1.83 6.267l0.028-0.047z" />
<glyph unicode="&#xe94b;" d="M864.815-17.455h-705.629c-0.433-0.008-0.944-0.012-1.456-0.012-47.443 0-86.115 37.557-87.906 84.562l-0.005 0.163v710.749c-0.003 0.28-0.005 0.611-0.005 0.942 0 48.585 39.386 87.971 87.971 87.971 0.493 0 0.985-0.004 1.475-0.012l-0.074 0.001h352.815c0.975 0.073 2.112 0.114 3.258 0.114 25.706 0 46.545-20.839 46.545-46.545 0-0.040 0-0.080 0-0.12v0.006c0-0.034 0-0.074 0-0.114 0-25.706-20.839-46.545-46.545-46.545-1.147 0-2.283 0.041-3.409 0.123l0.151-0.009h-342.575v-698.182h685.149v349.091c0 27.506 22.298 49.804 49.804 49.804s49.804-22.298 49.804-49.804v0-356.538c-1.292-47.578-40.17-85.655-87.94-85.655-0.502 0-1.002 0.004-1.502 0.013l0.075-0.001z" />
<glyph unicode="&#xe94c;" d="M512 500.596h-204.335c-25.706 0-46.545 20.839-46.545 46.545s20.839 46.545 46.545 46.545v0h204.335c25.706 0 46.545-20.839 46.545-46.545s-20.839-46.545-46.545-46.545v0z" />
<glyph unicode="&#xe94d;" d="M675.375 253.44h-367.709c-25.706 0-46.545 20.839-46.545 46.545s20.839 46.545 46.545 46.545v0h367.244c25.706 0 46.545-20.839 46.545-46.545s-20.839-46.545-46.545-46.545v0z" />
<glyph unicode="&#xe94e;" d="M998.4 268.8c0-183.8-149-332.8-332.8-332.8s-332.8 149-332.8 332.8c0 183.8 149 332.8 332.8 332.8s332.8-149 332.8-332.8z" />
<glyph unicode="&#xe94f;" d="M678.4 960h-550.4c-56.554 0-102.4-45.846-102.4-102.4v0-819.2c0-56.554 45.846-102.4 102.4-102.4v0h768c56.554 0 102.4 45.846 102.4 102.4v0 620.544zM691.2 806.4l164.352-153.6h-164.352zM128 38.4v819.2h460.8v-256c0-28.277 22.923-51.2 51.2-51.2v0h256v-512z" />
<glyph unicode="&#xe950;" d="M281.6 451.072h162.304c28.277 0 51.2 22.923 51.2 51.2s-22.923 51.2-51.2 51.2v0h-162.304c-28.277 0-51.2-22.923-51.2-51.2s22.923-51.2 51.2-51.2v0z" />
<glyph unicode="&#xe951;" d="M742.4 291.328h-460.8c-28.277 0-51.2-22.923-51.2-51.2s22.923-51.2 51.2-51.2v0h460.8c28.277 0 51.2 22.923 51.2 51.2s-22.923 51.2-51.2 51.2v0z" />
<glyph unicode="&#xe952;" glyph-name="droplet" d="M864.626 486.838c-65.754 183.44-205.11 348.15-352.626 473.162-147.516-125.012-286.87-289.722-352.626-473.162-40.664-113.436-44.682-236.562 12.584-345.4 65.846-125.14 198.632-205.438 340.042-205.438s274.196 80.298 340.040 205.44c57.27 108.838 53.25 231.962 12.586 345.398zM738.764 201.044c-43.802-83.252-132.812-137.044-226.764-137.044-55.12 0-108.524 18.536-152.112 50.652 13.242-1.724 26.632-2.652 40.112-2.652 117.426 0 228.668 67.214 283.402 171.242 44.878 85.292 40.978 173.848 23.882 244.338 14.558-28.15 26.906-56.198 36.848-83.932 22.606-63.062 40.024-156.34-5.368-242.604z" />
<glyph unicode="&#xe953;" glyph-name="address" d="M512 960c-236.056-3.149-426.205-195.244-426.205-431.751 0-118.492 47.729-225.837 125.011-303.856l-0.033 0.033 230.4-234.667c70.827-71.68 70.827-71.68 141.653 0l230.4 234.667c77.249 77.986 124.978 185.331 124.978 303.823 0 236.507-190.149 428.602-425.908 431.747l-0.297 0.003zM512 354.133c-94.257 0-170.667 76.41-170.667 170.667s76.41 170.667 170.667 170.667c94.257 0 170.667-76.41 170.667-170.667v0c0-94.257-76.41-170.667-170.667-170.667v0z" />
<glyph unicode="&#xe954;" glyph-name="accounts" d="M972.8 832h-921.6c-28.277 0-51.2-22.923-51.2-51.2v0-665.6c0-28.277 22.923-51.2 51.2-51.2v0h921.6c28.277 0 51.2 22.923 51.2 51.2v0 665.6c0 28.277-22.923 51.2-51.2 51.2v0zM972.8 780.8v-179.2h-921.6v179.2zM51.2 115.2v435.2h921.6v-435.2zM669.696 385.536l-102.4-153.6c-3.528-4.351-5.663-9.956-5.663-16.059 0-14.138 11.462-25.6 25.6-25.6 9.707 0 18.152 5.403 22.492 13.365l0.067 0.134 102.4 153.6c3.528 4.351 5.663 9.956 5.663 16.059 0 14.138-11.462 25.6-25.6 25.6-9.707 0-18.152-5.403-22.492-13.365l-0.067-0.134zM823.296 385.536l-102.4-153.6c-3.528-4.351-5.663-9.956-5.663-16.059 0-14.138 11.462-25.6 25.6-25.6 9.707 0 18.152 5.403 22.492 13.365l0.067 0.134 102.4 153.6c3.528 4.351 5.663 9.956 5.663 16.059 0 14.138-11.462 25.6-25.6 25.6-9.707 0-18.152-5.403-22.492-13.365l-0.067-0.134zM516.096 385.536l-102.4-153.6c-3.528-4.351-5.663-9.956-5.663-16.059 0-14.138 11.462-25.6 25.6-25.6 9.707 0 18.152 5.403 22.492 13.365l0.067 0.134 102.4 153.6c3.528 4.351 5.663 9.956 5.663 16.059 0 14.138-11.462 25.6-25.6 25.6-9.707 0-18.152-5.403-22.492-13.365l-0.067-0.134z" />
</font>
</defs>
</svg>
