<svg xmlns="http://www.w3.org/2000/svg" viewBox="0 0 22 22"><defs><style>.cls-1{fill:#cfe9ff;}.cls-2{fill:#54b4fe;}.cls-3{fill:none;}</style></defs><title>资源 53</title><g id="图层_2" data-name="图层 2"><g id="图层_1-2" data-name="图层 1"><path class="cls-1" d="M6.53,9.15a5.93,5.93,0,0,0-3.42,1.09v8.86A.82.82,0,0,0,3.9,20h7.47a6.87,6.87,0,0,0,1.39-4.17A6.44,6.44,0,0,0,6.53,9.15Z"/><path class="cls-2" d="M20.07,1.08A.25.25,0,0,0,19.85,1h-1a.25.25,0,0,0-.23.14l-1.57,3.1-1.57-3.1A.25.25,0,0,0,15.26,1h-1a.25.25,0,0,0-.22.37l1.87,3.5H14.82a.25.25,0,0,0-.25.25v.54a.25.25,0,0,0,.25.25h1.53v.55H14.82a.25.25,0,0,0-.25.25v.54a.25.25,0,0,0,.25.25h1.53V8.92a.25.25,0,0,0,.25.25h.89a.25.25,0,0,0,.25-.25V7.48h1.54a.25.25,0,0,0,.25-.25V6.68a.25.25,0,0,0-.25-.25H17.75V5.88h1.54a.25.25,0,0,0,.25-.25V5.08a.25.25,0,0,0-.25-.25H18.21l1.87-3.5A.25.25,0,0,0,20.07,1.08Z"/><path class="cls-2" d="M18.58,21H3.42A1.89,1.89,0,0,1,1.5,19.18V3.91A1.89,1.89,0,0,1,3.42,2H11a1,1,0,0,1,1.07,1,1,1,0,0,1-1.07,1H3.64V19H18.36v-7.5a1.07,1.07,0,0,1,2.14,0v7.66A1.89,1.89,0,0,1,18.58,21Z"/><path class="cls-2" d="M11,9.87H6.61a1,1,0,1,1,0-2H11a1,1,0,0,1,0,2Z"/><path class="cls-2" d="M14.51,15.18H6.61a1,1,0,0,1,0-2h7.89a1,1,0,0,1,0,2Z"/><rect class="cls-3" width="22" height="22"/></g></g></svg>