<svg xmlns="http://www.w3.org/2000/svg" viewBox="0 0 22 11"><defs><style>.cls-1{fill:#bbb;}.cls-2{fill:none;stroke:#bbb;stroke-miterlimit:10;stroke-width:2.11px;}</style></defs><title>密码隐藏</title><g id="图层_2" data-name="图层 2"><g id="图层_1-2" data-name="图层 1"><path class="cls-1" d="M21.92.63a1,1,0,0,0-.55-.54A1,1,0,0,0,20,.62a9.55,9.55,0,0,1-9,5.59A9.49,9.49,0,0,1,2,.61,1,1,0,0,0,.63.07,1,1,0,0,0,.08.61a1,1,0,0,0,0,.75A10.5,10.5,0,0,0,1.76,4.08L.69,5.31A1,1,0,0,0,.82,6.7a1.07,1.07,0,0,0,1.43-.12L3.2,5.49A11.64,11.64,0,0,0,5.44,6.92l-.6,1.6a1,1,0,0,0,0,.75,1,1,0,0,0,.58.51,1,1,0,0,0,1.3-.59l.58-1.55A12.82,12.82,0,0,0,10,8.14V10a1,1,0,0,0,2,0V8.15a12.85,12.85,0,0,0,2.82-.53l.6,1.58a1,1,0,0,0,1.3.59,1,1,0,0,0,.58-.51,1,1,0,0,0,0-.75l-.62-1.66a11.36,11.36,0,0,0,2.2-1.45l1,1.17a1.07,1.07,0,0,0,1.43.12A1,1,0,0,0,21.73,6a1,1,0,0,0-.23-.72L20.34,4a10.88,10.88,0,0,0,1.58-2.6A1,1,0,0,0,21.92.63Z"/><path class="cls-2" d="M11,7.3"/></g></g></svg>