<svg xmlns="http://www.w3.org/2000/svg" viewBox="0 0 24 18"><defs><style>.cls-1,.cls-3{fill:none;stroke:#bbb;stroke-miterlimit:10;}.cls-1{stroke-width:2px;}.cls-2{fill:#bbb;}.cls-3{stroke-width:1.83px;}</style></defs><title>密码显示</title><g id="图层_2" data-name="图层 2"><g id="图层_1-2" data-name="图层 1"><path class="cls-1" d="M12,2.38"/><path class="cls-2" d="M12,18A13,13,0,0,1,.14,9.73a1.91,1.91,0,0,1,0-1.46A13,13,0,0,1,12,0,13,13,0,0,1,23.86,8.27a1.91,1.91,0,0,1,0,1.46A13,13,0,0,1,12,18ZM2.05,9A11,11,0,0,0,12,15.75,11,11,0,0,0,21.95,9,11,11,0,0,0,12,2.25,11,11,0,0,0,2.05,9Zm20-.22h0ZM2,8.78H2Z"/><path class="cls-2" d="M12,13.06a4.06,4.06,0,1,1,3.75-2.51A4.07,4.07,0,0,1,12,13.06Zm0-6.12a2.06,2.06,0,1,0,1.46.61A2.06,2.06,0,0,0,12,6.94Z"/><path class="cls-3" d="M12,11.81"/></g></g></svg>