<svg xmlns="http://www.w3.org/2000/svg" viewBox="0 0 16 15"><defs><style>.cls-1{fill:#999;}</style></defs><title>米筹首页</title><g id="图层_2" data-name="图层 2"><g id="图层_1-2" data-name="图层 1"><path class="cls-1" d="M8,1.78l4.79,3.63v7.71a.38.38,0,0,1-.38.38H3.6a.38.38,0,0,1-.38-.37V5.41L8,1.78M8,0a.4.4,0,0,0-.24.08L.13,5.87a.32.32,0,0,0,.24.58H1.71v6.68A1.88,1.88,0,0,0,3.6,15H12.4a1.88,1.88,0,0,0,1.88-1.87V6.45h1.34a.32.32,0,0,0,.24-.58L8.24.08A.4.4,0,0,0,8,0Z"/><path class="cls-1" d="M8,7.44a.84.84,0,1,1-.85.84A.85.85,0,0,1,8,7.44m0-1.5a2.34,2.34,0,1,0,2.35,2.34A2.35,2.35,0,0,0,8,5.94Z"/></g></g></svg>