<svg xmlns="http://www.w3.org/2000/svg" viewBox="0 0 172.25 32"><defs><style>.cls-1{fill:#ff942a;}</style></defs><title>供应链logo</title><g id="图层_2" data-name="图层 2"><g id="图层_1-2" data-name="图层 1"><g id="_编组_" data-name="&lt;编组&gt;"><g id="_编组_2" data-name="&lt;编组&gt;"><path id="_复合路径_" data-name="&lt;复合路径&gt;" class="cls-1" d="M4.74,3.34h7.15l5.67,14.92,6-14.92h7.22L35,31.26H27.73l-2-16.07h-.07l-6.7,16.07H16L9.63,15.19H9.55L7.22,31.26H0Z"/><path id="_复合路径_2" data-name="&lt;复合路径&gt;" class="cls-1" d="M69.2,12.71a7.11,7.11,0,0,0-2.8-2.3,8.44,8.44,0,0,0-3.57-.78,7.59,7.59,0,0,0-3,.59,6.91,6.91,0,0,0-2.35,1.65,7.49,7.49,0,0,0-1.52,2.46,8.43,8.43,0,0,0-.54,3,8.38,8.38,0,0,0,.54,3.05,6.79,6.79,0,0,0,1.54,2.39,7.25,7.25,0,0,0,2.39,1.57,8,8,0,0,0,3.09.57,7.89,7.89,0,0,0,3.44-.8A8.26,8.26,0,0,0,69.2,22v8.7q-1.81.55-3.26.93a12.71,12.71,0,0,1-3.15.37,15.18,15.18,0,0,1-5.61-1.06,15.62,15.62,0,0,1-4.87-3.05,13,13,0,0,1-3.41-4.76,15.26,15.26,0,0,1-1.07-5.79,14.68,14.68,0,0,1,1.05-5.52,14.5,14.5,0,0,1,3.06-4.7,15.14,15.14,0,0,1,4.87-3.31,14.42,14.42,0,0,1,5.76-1.2A15.15,15.15,0,0,1,66,3,21.15,21.15,0,0,1,69.2,4Z"/><path id="_路径_" data-name="&lt;路径&gt;" class="cls-1" d="M48.17,0A13.51,13.51,0,0,0,36.82,11.35,13.51,13.51,0,0,0,48.17,0Z"/><path id="_路径_2" data-name="&lt;路径&gt;" class="cls-1" d="M37.91,31.26h6.74V10.92a16.17,16.17,0,0,1-6.74,3Z"/></g></g><path class="cls-1" d="M80.4,2.26a.62.62,0,0,1,.5.37,1.5,1.5,0,0,1-.06.82q-.26,1-.54,1.83T79.69,7v12.2A.68.68,0,0,1,79,20q-.71,0-.71-.76V10q-.21.37-.42.71l-.44.69a1.8,1.8,0,0,1-.66.68.64.64,0,0,1-.62-.1.56.56,0,0,1-.3-.52,1.85,1.85,0,0,1,.37-.84q.63-1,1.13-1.9t.88-1.85Q78.59,6,78.9,5t.57-1.93a1.71,1.71,0,0,1,.35-.73A.57.57,0,0,1,80.4,2.26Zm11.93,4a.69.69,0,0,1,.58.2.79.79,0,0,1,.15.49.81.81,0,0,1-.15.53.74.74,0,0,1-.58.18H90.41v4.55h2.52a.7.7,0,0,1,.57.2.82.82,0,0,1,.16.53.77.77,0,0,1-.16.53.74.74,0,0,1-.57.18H80.85q-.76,0-.76-.71a.66.66,0,0,1,.76-.73h2.81V7.7H81.5a.74.74,0,0,1-.58-.18A.81.81,0,0,1,80.77,7a.79.79,0,0,1,.15-.49.69.69,0,0,1,.58-.2h2.16V3a.66.66,0,0,1,.21-.54.8.8,0,0,1,.52-.17.82.82,0,0,1,.51.15.67.67,0,0,1,.2.56V6.3H89V2.89a.68.68,0,0,1,.2-.54.76.76,0,0,1,.51-.17.86.86,0,0,1,.53.15.67.67,0,0,1,.2.56V6.3Zm-7.12,7.75a.59.59,0,0,1,.37.51,1.77,1.77,0,0,1-.32.83,15.94,15.94,0,0,1-1.42,2,20.14,20.14,0,0,1-1.9,2,1.23,1.23,0,0,1-.73.44.73.73,0,0,1-.56-.27.59.59,0,0,1-.19-.53,1.63,1.63,0,0,1,.48-.7,18.59,18.59,0,0,0,1.69-1.8A19.34,19.34,0,0,0,84,14.67,2.12,2.12,0,0,1,84.6,14,.62.62,0,0,1,85.21,14.06Zm-.11-1.81H89V7.7H85.09Zm8.12,7.38a.6.6,0,0,1-.61.15,1.7,1.7,0,0,1-.67-.63q-.61-.89-1.41-1.84T88.9,15.49a1.85,1.85,0,0,1-.5-.7.6.6,0,0,1,.21-.57A.67.67,0,0,1,89.2,14a1.36,1.36,0,0,1,.68.45q.78.84,1.66,1.88t1.6,2a1.53,1.53,0,0,1,.38.76A.69.69,0,0,1,93.22,19.63Z"/><path class="cls-1" d="M112.35,3.94a.81.81,0,0,1,.6.18.75.75,0,0,1,.17.53.71.71,0,0,1-.17.53.87.87,0,0,1-.6.16H98.75a.4.4,0,0,0-.26.06.29.29,0,0,0-.06.2v5.59q0,1.51-.09,2.69T98.08,16a13,13,0,0,1-.4,1.66A12.56,12.56,0,0,1,97.16,19a1.49,1.49,0,0,1-.52.68.66.66,0,0,1-.61,0,.58.58,0,0,1-.38-.47,1.47,1.47,0,0,1,.23-.78,8.48,8.48,0,0,0,.52-1.2,9.05,9.05,0,0,0,.36-1.49,19,19,0,0,0,.2-2Q97,12.6,97,11.09V5.43a1.63,1.63,0,0,1,.33-1.17,1.57,1.57,0,0,1,1.11-.32h5.76q-.21-.39-.45-.78a.68.68,0,0,1-.15-.55.76.76,0,0,1,.39-.48q.67-.41,1.16.47c.1.19.2.39.31.62s.21.47.31.72Zm.89,14.61a.73.73,0,0,1-.16.48.65.65,0,0,1-.53.2H98.47A.59.59,0,0,1,98,19a.76.76,0,0,1-.15-.48A.86.86,0,0,1,98,18a.59.59,0,0,1,.51-.2h14.09a.64.64,0,0,1,.55.2A.87.87,0,0,1,113.24,18.55Zm-10.06-2.83a2,2,0,0,1,0,1,.67.67,0,0,1-.52.36.61.61,0,0,1-.57-.07,1.56,1.56,0,0,1-.33-.82q-.17-.91-.44-2t-.58-2.23q-.31-1.11-.61-2.07T99.64,8.3a1.52,1.52,0,0,1-.16-.83.58.58,0,0,1,.38-.4q.73-.3,1,.6t.62,1.8q.33,1,.63,2.11t.58,2.16Q103,14.8,103.18,15.71Zm3.67-1.1a2.33,2.33,0,0,1-.06,1,.58.58,0,0,1-.54.31.65.65,0,0,1-.6-.19,1.59,1.59,0,0,1-.22-.88q0-1-.17-2T105,10.59q-.18-1.08-.38-2a15.44,15.44,0,0,0-.43-1.63,1.15,1.15,0,0,1-.08-.68.64.64,0,0,1,.47-.38.66.66,0,0,1,.56,0,1.11,1.11,0,0,1,.35.61q.24.8.46,1.78t.4,2q.19,1.06.33,2.16T106.85,14.61Zm4.73-7.12q-.47,2.72-1,5.09a44,44,0,0,1-1.22,4.23q-.21.61-.46.73a.84.84,0,0,1-.64,0,.51.51,0,0,1-.37-.43,2.15,2.15,0,0,1,.19-.82q.32-.8.61-1.84t.58-2.21q.28-1.17.51-2.45t.44-2.6a1.25,1.25,0,0,1,.27-.7.71.71,0,0,1,.66-.1.55.55,0,0,1,.47.34A1.81,1.81,0,0,1,111.59,7.5Z"/><path class="cls-1" d="M118.85,3.14q-.08.26-.13.49t-.13.48h1.77a.64.64,0,0,1,.51.17.74.74,0,0,1,.14.48.77.77,0,0,1-.14.5.64.64,0,0,1-.51.17h-2.2l-.4,1.06q-.2.52-.42,1h2.61a.73.73,0,0,1,.49.14.64.64,0,0,1,.16.49.7.7,0,0,1-.16.52.7.7,0,0,1-.49.15h-1.1v2.83h1.45a.64.64,0,0,1,.52.17.81.81,0,0,1,.13.5.74.74,0,0,1-.14.48.64.64,0,0,1-.51.17h-1.45v4.29c0,.12,0,.19,0,.2s.07,0,.15-.12l.31-.35.27-.35q.48-.69,1-.35a.81.81,0,0,1,.38.49.75.75,0,0,1-.2.62q-.58.71-1,1.12a5.19,5.19,0,0,1-.76.67q-.78.58-1.18.23A1.9,1.9,0,0,1,117.5,18V13h-1.62q-.71,0-.71-.65a.67.67,0,0,1,.17-.52.8.8,0,0,1,.54-.15h1.62V8.82h-.78l-.19.39-.19.37q-.43.84-1,.47a.63.63,0,0,1-.31-.48,1.07,1.07,0,0,1,.16-.62,27.91,27.91,0,0,0,1.43-3,21.85,21.85,0,0,0,.93-3,1.54,1.54,0,0,1,.25-.64q.16-.2.61-.1a.57.57,0,0,1,.47.31A1.22,1.22,0,0,1,118.85,3.14Zm13.27,15.24a.64.64,0,0,1,.55.2.87.87,0,0,1,.14.51.74.74,0,0,1-.16.52.71.71,0,0,1-.53.17h-4a6.62,6.62,0,0,1-2.94-.6,5,5,0,0,1-2-1.79q-.47.63-.91,1.16a5.74,5.74,0,0,1-1.16,1,1.43,1.43,0,0,1-.61.27q-.25,0-.51-.34a.6.6,0,0,1-.1-.57,1.47,1.47,0,0,1,.49-.55A6.3,6.3,0,0,0,122,16.73a3.07,3.07,0,0,0,.57-1.63V9.88c0-.06,0-.09-.11-.09h-1.14a.71.71,0,0,1-.59-.19.82.82,0,0,1-.14-.5.86.86,0,0,1,.14-.51.69.69,0,0,1,.59-.2h1.55a1,1,0,0,1,.8.27,1.21,1.21,0,0,1,.24.83V15q0,.21,0,.42c0,.14,0,.28-.06.42a4.12,4.12,0,0,0,1.63,1.93,5.35,5.35,0,0,0,2.66.57ZM123.73,7.09a.5.5,0,0,1-.56,0,1.25,1.25,0,0,1-.41-.48q-.39-.73-.74-1.26t-.72-1a.83.83,0,0,1-.22-.61.61.61,0,0,1,.3-.44.58.58,0,0,1,.54-.11,1.25,1.25,0,0,1,.45.35,11.56,11.56,0,0,1,.84,1.16q.39.61.73,1.25a1,1,0,0,1,.19.7A.8.8,0,0,1,123.73,7.09Zm1.16,7.55a.69.69,0,0,1-.56-.19.78.78,0,0,1-.15-.5.79.79,0,0,1,.15-.49.67.67,0,0,1,.56-.2h3.34V10.87h-2.83q-.88,0-.88-.82a1.73,1.73,0,0,1,.08-.48,4.23,4.23,0,0,1,.23-.6q.45-.93.85-1.83t.75-1.81h-1.66a.67.67,0,0,1-.56-.2.79.79,0,0,1-.15-.49.82.82,0,0,1,.15-.51.67.67,0,0,1,.56-.2h2.16l.18-.51.18-.51a.92.92,0,0,1,.36-.51.57.57,0,0,1,.47-.07.46.46,0,0,1,.4.32,1,1,0,0,1,0,.6c-.05.12-.09.24-.13.35l-.11.34h3.45a.67.67,0,0,1,.55.2.79.79,0,0,1,.16.51.76.76,0,0,1-.16.49.67.67,0,0,1-.55.2h-3.93q-.37,1-.75,2t-.87,1.9c-.06.11-.07.18,0,.2a.77.77,0,0,0,.29,0h1.79V6.73a.71.71,0,0,1,.19-.58.86.86,0,0,1,1,0,.72.72,0,0,1,.19.58V9.45h1.58a.72.72,0,0,1,.53.2.69.69,0,0,1,.2.51.76.76,0,0,1-.17.51.7.7,0,0,1-.56.2h-1.58v2.39h2.29a.69.69,0,0,1,.58.2.79.79,0,0,1,.15.49.78.78,0,0,1-.15.5.71.71,0,0,1-.58.19h-2.29v3a.69.69,0,0,1-.19.56.86.86,0,0,1-1,0,.69.69,0,0,1-.19-.56v-3Z"/><path class="cls-1" d="M142.88,11.5V9.23h-4.94q-.86,0-.86-.71a.63.63,0,0,1,.17-.47q-.61.32-1.19.56a1.52,1.52,0,0,1-1,.18.63.63,0,0,1-.41-.51.66.66,0,0,1,.08-.58,1.41,1.41,0,0,1,.7-.48A17.91,17.91,0,0,0,139,5.34a28,28,0,0,0,3.49-2.84,1.48,1.48,0,0,1,.47-.3,1.39,1.39,0,0,1,.5-.09,1.59,1.59,0,0,1,1.08.43,30.4,30.4,0,0,0,3.73,2.87,16,16,0,0,0,3.84,1.86,1.12,1.12,0,0,1,.5.36.65.65,0,0,1,.07.68q-.15.39-.44.44a1.75,1.75,0,0,1-.68,0,17.17,17.17,0,0,1-2.09-1q-1-.56-2-1.2T145.49,5.2q-.91-.72-1.7-1.44a.47.47,0,0,0-.71,0Q141.76,5,140.46,6a19.22,19.22,0,0,1-2.86,1.86,1.73,1.73,0,0,1,.34,0h11.18a1,1,0,0,1,.62.17.6.6,0,0,1,.23.52.63.63,0,0,1-.23.53,1,1,0,0,1-.62.18h-4.77V11.5h6.41q.86,0,.86.71a.6.6,0,0,1-.23.52,1,1,0,0,1-.62.17h-6.41V18h2q-.35-.45.17-1.14t1-1.47q.42-.69.85-1.57a1.66,1.66,0,0,1,.41-.57.54.54,0,0,1,.56,0c.29.11.44.27.47.48a1.29,1.29,0,0,1-.17.72q-.49,1-1,1.79t-1,1.57l-.09.11-.09.09h4.23q.84,0,.84.71a.66.66,0,0,1-.23.53.91.91,0,0,1-.61.2h-16a.84.84,0,0,1-.59-.2.68.68,0,0,1-.21-.53q0-.71.8-.71h3.73a2.36,2.36,0,0,1-.21-.47q-.15-.47-.31-.87t-.32-.76q-.16-.36-.35-.74l-.39-.8a1.7,1.7,0,0,1-.23-.73.74.74,0,0,1,.33-.5.7.7,0,0,1,.61-.12,1,1,0,0,1,.57.57q.22.43.4.81t.34.79q.17.41.34.87t.35,1a1,1,0,0,1,0,1h2.44V12.9h-6.35q-.8,0-.8-.69t.8-.71Z"/><path class="cls-1" d="M163.67,4a.64.64,0,0,1-.2.55.86.86,0,0,1-.51.14h-7.34a1.08,1.08,0,0,1-.52-.11q-.21-.11-.21-.54a.62.62,0,0,1,.21-.55.91.91,0,0,1,.52-.14H163a1,1,0,0,1,.51.11Q163.67,3.6,163.67,4Zm.13,14a1.86,1.86,0,0,1-.42,1.41,1.88,1.88,0,0,1-1.29.38,4.39,4.39,0,0,1-1.1-.13,1,1,0,0,1-.57-.28.7.7,0,0,1,0-.54.59.59,0,0,1,.3-.48,1.32,1.32,0,0,1,.71,0,5.23,5.23,0,0,0,.56.09.6.6,0,0,0,.32,0,.26.26,0,0,0,.14-.2,1.91,1.91,0,0,0,0-.36V11.73a.44.44,0,0,0-.07-.29.37.37,0,0,0-.28-.08h-5.5q-.3,0-.3.32v7.64a.59.59,0,0,1-.67.69.78.78,0,0,1-.53-.16.69.69,0,0,1-.18-.53V11.6a1.94,1.94,0,0,1,.31-1.23,1.43,1.43,0,0,1,1.15-.37H162a2,2,0,0,1,1.41.37,1.67,1.67,0,0,1,.38,1.23Zm-.86-10.08a1.54,1.54,0,0,1-.36,1.19,1.82,1.82,0,0,1-1.2.32H157a1.78,1.78,0,0,1-1.19-.32,1.57,1.57,0,0,1-.35-1.19V7a1.61,1.61,0,0,1,.35-1.19A1.71,1.71,0,0,1,157,5.48h4.34a1.75,1.75,0,0,1,1.2.34A1.58,1.58,0,0,1,162.94,7Zm-5.85,7.51a1,1,0,0,1-.55-.12q-.18-.12-.18-.55t.2-.53a1,1,0,0,1,.53-.12h.45q-.26-.76-.56-1.43t.26-1a.68.68,0,0,1,.53,0,.88.88,0,0,1,.38.5q.17.43.32.89t.32,1.11h1.1q.26-.48.45-.89t.34-.84a1.64,1.64,0,0,1,.37-.67.57.57,0,0,1,.58-.07A.53.53,0,0,1,162,12a1.31,1.31,0,0,1-.13.72,7.86,7.86,0,0,1-.3.75q-.15.32-.34.65h.37a1,1,0,0,1,.54.12q.19.12.19.53t-.19.55a1,1,0,0,1-.54.12H160v3.32a.78.78,0,0,1-.16.53.68.68,0,0,1-.53.18q-.41,0-.53-.18a1,1,0,0,1-.12-.53V15.42Zm4.47-8.35c0-.17-.12-.26-.35-.26h-4q-.28,0-.28.26v.8q0,.24.28.24h4c.24,0,.35-.08.35-.24ZM169.74,16q-.37-.84.22-1.08a.74.74,0,0,1,.59,0,.82.82,0,0,1,.38.49q.34.82.63,1.73t.52,1.86a1.58,1.58,0,0,1,0,.66.47.47,0,0,1-.37.33.69.69,0,0,1-.61,0,1,1,0,0,1-.3-.57l-.07-.25-.07-.25-5.87.82a1.27,1.27,0,0,1-.77,0,.73.73,0,0,1-.25-.55.71.71,0,0,1,.11-.58,1,1,0,0,1,.69-.26l2.52-.32V14.48h-1.34a2.81,2.81,0,0,1-.71-.07.79.79,0,0,1-.43-.26,1.09,1.09,0,0,1-.21-.49,4.61,4.61,0,0,1-.06-.79V6.47a2,2,0,0,1,.29-1.22,1.36,1.36,0,0,1,1.11-.36h1.34v-2a.67.67,0,0,1,.2-.55.79.79,0,0,1,.51-.16.71.71,0,0,1,.5.16.74.74,0,0,1,.17.55v2h1.32a1.42,1.42,0,0,1,1.14.36,2,2,0,0,1,.3,1.22v6.39a2,2,0,0,1-.3,1.24,1.38,1.38,0,0,1-1.14.38h-1.32v3.2l1.81-.22q-.13-.39-.28-.76Zm-4-3.17q0,.34.22.34h1.14V6.21H166q-.22,0-.22.32Zm3.88.34q.24,0,.24-.34V6.53q0-.32-.24-.32h-1.14v6.91Z"/><path class="cls-1" d="M80.61,24.94a1.88,1.88,0,0,1,.66,1.37h-.65a1.46,1.46,0,0,0-.49-.93A1.69,1.69,0,0,0,79,25.08a2,2,0,0,0-1,.21.8.8,0,0,0,.08,1.44,6.72,6.72,0,0,0,1.06.36,7.78,7.78,0,0,1,1.5.56,1.36,1.36,0,0,1,.72,1.22,1.4,1.4,0,0,1-.61,1.2,2.79,2.79,0,0,1-1.63.43,2.61,2.61,0,0,1-1.6-.44,2.06,2.06,0,0,1-.75-1.58h.65A1.59,1.59,0,0,0,78,29.59a1.86,1.86,0,0,0,1.17.32,2.19,2.19,0,0,0,1.15-.27.82.82,0,0,0,.44-.73.94.94,0,0,0-.57-.85A6.92,6.92,0,0,0,79,27.65a9.67,9.67,0,0,1-1.33-.47A1.22,1.22,0,0,1,77,26.06a1.32,1.32,0,0,1,.64-1.17,2.57,2.57,0,0,1,1.47-.39A2.4,2.4,0,0,1,80.61,24.94Z"/><path class="cls-1" d="M82.91,24.61v3.57a1.88,1.88,0,0,0,.38,1.29,1.61,1.61,0,0,0,1.26.45,1.63,1.63,0,0,0,1.26-.45,1.92,1.92,0,0,0,.38-1.29V24.61h.66v3.56a2.39,2.39,0,0,1-.57,1.72,2.77,2.77,0,0,1-3.45,0,2.39,2.39,0,0,1-.58-1.73V24.61Z"/><path class="cls-1" d="M90.38,24.61q2,0,2,1.7c0,1.14-.67,1.71-2,1.71H88.68v2.36H88V24.61Zm-1.7,2.84h1.66a1.6,1.6,0,0,0,1-.28,1.06,1.06,0,0,0,.33-.86,1,1,0,0,0-.34-.84,1.54,1.54,0,0,0-1-.28H88.68Z"/><path class="cls-1" d="M95.57,24.61q2,0,2,1.7c0,1.14-.67,1.71-2,1.71H93.87v2.36h-.66V24.61Zm-1.7,2.84h1.66a1.6,1.6,0,0,0,1-.28,1.06,1.06,0,0,0,.33-.86,1,1,0,0,0-.34-.84,1.54,1.54,0,0,0-1-.28H93.87Z"/><path class="cls-1" d="M99.05,24.61v5.2h3.34v.57h-4V24.61Z"/><path class="cls-1" d="M103.41,24.61l1.84,2.81,1.84-2.81h.8L105.57,28v2.35h-.66V28l-2.3-3.43Z"/><path class="cls-1" d="M115.3,25a2,2,0,0,1,.78,1.37h-.64a1.48,1.48,0,0,0-.61-1,2,2,0,0,0-1.15-.32,1.85,1.85,0,0,0-1.55.7,2.74,2.74,0,0,0-.51,1.73,2.65,2.65,0,0,0,.5,1.71,1.86,1.86,0,0,0,1.54.67,1.8,1.8,0,0,0,1.86-1.5h.64a2.64,2.64,0,0,1-4.56,1.2,3.19,3.19,0,0,1-.65-2.09,3.25,3.25,0,0,1,.66-2.11,2.49,2.49,0,0,1,2.07-.91A2.56,2.56,0,0,1,115.3,25Z"/><path class="cls-1" d="M117.74,24.61v2.51h3.34V24.61h.66v5.77h-.66V27.69h-3.34v2.69h-.66V24.61Z"/><path class="cls-1" d="M125.35,24.61l2.27,5.77h-.72l-.61-1.62h-2.65L123,30.39h-.71l2.27-5.77Zm.73,3.6L125,25.32h0l-1.11,2.89Z"/><path class="cls-1" d="M128.91,24.61v5.77h-.66V24.61Z"/><path class="cls-1" d="M130.82,24.61l3.27,4.7h0v-4.7h.66v5.77h-.68l-3.28-4.75h0v4.75h-.66V24.61Z"/><path class="cls-1" d="M142.49,24.61v.57h-3.2v1.94h3v.57h-3v2.68h-.66V24.61Z"/><path class="cls-1" d="M144,24.61v5.77h-.66V24.61Z"/><path class="cls-1" d="M145.9,24.61l3.27,4.7h0v-4.7h.66v5.77h-.68l-3.28-4.75h0v4.75h-.66V24.61Z"/><path class="cls-1" d="M153.47,24.61l2.27,5.77H155l-.61-1.62h-2.65l-.61,1.62h-.71l2.27-5.77Zm.73,3.6-1.09-2.89h0L152,28.21Z"/><path class="cls-1" d="M157,24.61l3.27,4.7h0v-4.7H161v5.77h-.68L157,25.64h0v4.75h-.66V24.61Z"/><path class="cls-1" d="M166.24,25a2,2,0,0,1,.78,1.37h-.64a1.48,1.48,0,0,0-.61-1,2,2,0,0,0-1.15-.32,1.85,1.85,0,0,0-1.55.7,2.74,2.74,0,0,0-.51,1.73,2.65,2.65,0,0,0,.5,1.71,1.86,1.86,0,0,0,1.54.67,1.8,1.8,0,0,0,1.86-1.5h.64a2.64,2.64,0,0,1-4.56,1.2,3.19,3.19,0,0,1-.65-2.09,3.25,3.25,0,0,1,.66-2.11,2.49,2.49,0,0,1,2.07-.91A2.56,2.56,0,0,1,166.24,25Z"/><path class="cls-1" d="M172.11,24.61v.57h-3.43v1.93h3.23v.57h-3.23v2.12h3.57v.57H168V24.61Z"/></g></g></svg>