<svg xmlns="http://www.w3.org/2000/svg" viewBox="0 0 20 20"><defs><style>.cls-1{fill:#54b4fe;}</style></defs><title>常见问题</title><g id="图层_2" data-name="图层 2"><g id="图层_1-2" data-name="图层 1"><path class="cls-1" d="M10,0A10,10,0,1,0,20,10,10,10,0,0,0,10,0Zm.79,15.65a1.34,1.34,0,0,1-1.81,0,1.28,1.28,0,0,1,0-1.78,1.27,1.27,0,0,1,.91-.34,1.31,1.31,0,0,1,.92.34,1.22,1.22,0,0,1,.36.89A1.21,1.21,0,0,1,10.79,15.65Zm2.37-6.38c-.15.17-.63.61-1.42,1.3a2.55,2.55,0,0,0-.66.83,2.32,2.32,0,0,0-.25,1.07v.23H8.94v-.23a3.49,3.49,0,0,1,.33-1.62A9,9,0,0,1,11.2,8.76l.2-.23a1.83,1.83,0,0,0,.45-1.17,1.8,1.8,0,0,0-.46-1.29,1.78,1.78,0,0,0-1.32-.46,1.72,1.72,0,0,0-1.55.68A2.69,2.69,0,0,0,8.1,7.91H6.23A3.77,3.77,0,0,1,7.3,5a3.94,3.94,0,0,1,2.88-1,3.75,3.75,0,0,1,2.61.87,3,3,0,0,1,1,2.37A3.29,3.29,0,0,1,13.16,9.27Z"/></g></g></svg>