<svg xmlns="http://www.w3.org/2000/svg" viewBox="0 0 88 88"><defs><style>.cls-1{fill:#ecf7ff;}.cls-2,.cls-5{fill:#54b4fe;}.cls-2{opacity:0.5;}.cls-3{fill:#3888e8;}.cls-4{fill:#fff;}</style></defs><title>应收账款融资</title><g id="图层_2" data-name="图层 2"><g id="图层_1-2" data-name="图层 1"><circle class="cls-1" cx="44" cy="44" r="44"/><path class="cls-2" d="M61.82,62.63H29.35a3,3,0,0,1-2.83-3.79l1.93-6.56a3,3,0,0,1,2.83-2.12H59.89a3,3,0,0,1,2.83,2.12l1.93,6.56A3,3,0,0,1,61.82,62.63Z"/><path class="cls-3" d="M42.24,53.15A13.89,13.89,0,1,1,56.14,39.26,13.91,13.91,0,0,1,42.24,53.15Zm0,0"/><path class="cls-4" d="M38.24,40.78h2.62V39.52H38.24c-.73,0-1.1-.42-1.1-.94s.37-.73,1.1-.73h1.89l-1.42-2.26c-.47-.94,1-1.73,1.57-.94s1.57,2.62,1.57,2.62,1.21-1.89,1.78-2.83,2.1.16,1.57,1.1l-1.57,2.36h1.89c.73,0,1,.26,1,.73a1,1,0,0,1-1,.94H43v1.26h2.52c.73,0,1,.26,1,.73s-.37.84-1,.84H43v.1c0,1-.37,1.57-1.15,1.57s-1-.52-1-1.57v-.16H38.18c-.73,0-1.1-.37-1.1-.84s.42-.73,1.15-.73Zm0,0"/><path class="cls-5" d="M63.47,51.33a33.88,33.88,0,0,1-7.28-2.93c-2.7-1.58-5.33-3.08-7.36-3.3-1.58-.23-3.3.6-3.45,2.18a5.63,5.63,0,0,0,1.28,4.43,23,23,0,0,1-12.54-4.28c-6.31-4.43-7.28-7.88-9.69-6.68a3.25,3.25,0,0,0-1.2,2c.3,3.83,8.86,14.94,16.07,16.52,6.91,1.5,18,1.13,21.85.68a10.42,10.42,0,0,0,2.25-.68V51.33Zm0,0"/></g></g></svg>