<svg xmlns="http://www.w3.org/2000/svg" viewBox="0 0 88 88"><defs><style>.cls-1{fill:#ecf7ff;}.cls-2,.cls-3{fill:#54b4fe;}.cls-2,.cls-4,.cls-5{opacity:0.5;}.cls-4,.cls-7{fill:#fff;}.cls-5,.cls-6{fill:#3888e8;}</style></defs><title>订单融资</title><g id="图层_2" data-name="图层 2"><g id="图层_1-2" data-name="图层 1"><circle class="cls-1" cx="44" cy="44" r="44"/><path class="cls-2" d="M28.3,53.72H60l4,5.53c1.5,2.09.67,3.81-1.94,3.81H25.84c-2.54,0-3.36-1.64-1.87-3.74Zm0,0"/><path class="cls-3" d="M30.62,27H50.88a4.69,4.69,0,0,1,4.71,4.71V54.32A4.69,4.69,0,0,1,50.88,59H30.62a4.69,4.69,0,0,1-4.71-4.71V31.67A4.69,4.69,0,0,1,30.62,27Zm0,0"/><path class="cls-4" d="M48.19,36.3h-15A1.25,1.25,0,0,0,32,37.5a1.2,1.2,0,0,0,1.27,1.2h15a1.25,1.25,0,0,0,1.27-1.2,1.3,1.3,0,0,0-1.27-1.2Zm0,0"/><path class="cls-4" d="M48.19,43.7h-15A1.25,1.25,0,0,0,32,44.9a1.2,1.2,0,0,0,1.27,1.2h15a1.25,1.25,0,0,0,1.27-1.2,1.3,1.3,0,0,0-1.27-1.2Zm0,0"/><path class="cls-5" d="M46,29.87H35.85a2.49,2.49,0,0,1-2.47-2.47,2.4,2.4,0,0,1,2.47-2.47H46a2.49,2.49,0,0,1,2.47,2.47v.07a2.43,2.43,0,0,1-.75,1.72,2.37,2.37,0,0,1-1.72.67Zm0,0"/><path class="cls-6" d="M46.92,52.82a8.07,8.07,0,1,0,8.07-8,8,8,0,0,0-8.07,8Zm0,0"/><path class="cls-7" d="M52.52,54.36h1.76v-.86H52.52c-.5,0-.7-.3-.7-.6s.25-.5.7-.5h1.26l-1-1.56c-.3-.65.7-1.16,1.06-.65S55,51.95,55,51.95s.8-1.26,1.21-1.91,1.41.1,1.06.75S56.2,52.4,56.2,52.4h1.26c.5,0,.7.15.7.5s-.25.6-.7.6H55.69v.86h1.76c.5,0,.7.15.7.5s-.25.55-.7.55H55.69v.1c0,.7-.25,1.06-.7,1.06s-.7-.35-.7-1.06v-.1H52.52c-.5,0-.7-.25-.7-.55s.2-.5.7-.5Zm0,0"/></g></g></svg>