<svg xmlns="http://www.w3.org/2000/svg" viewBox="0 0 114 114"><defs><style>.cls-1{fill:#ee2323;}</style></defs><title>电子签章效果图</title><g id="图层_2" data-name="图层 2"><g id="图层_1-2" data-name="图层 1"><path class="cls-1" d="M10.49,51.43q0,.5.11,1a8.12,8.12,0,0,1,1.55-1.64L12,49.84A7.87,7.87,0,0,0,10.49,51.43Z"/><path class="cls-1" d="M12.82,45.12a11,11,0,0,0-1.15-2.2l-.36.78a12,12,0,0,1,1.19,2.15Z"/><path class="cls-1" d="M16.69,43.4l-.27-.69a15.72,15.72,0,0,1-3,3.93q.3-2.14.77-4.15l-.45-.12a49,49,0,0,0-.89,5L10.39,47q-.07.5-.12,1l2.42.32a50.65,50.65,0,0,0-.28,5.47h.46q0-2.34.21-4.55a14.5,14.5,0,0,1,2,5l.44-.54a13.83,13.83,0,0,0-2.41-5.2v-.06l3.11.41q0-.49.1-.93l-3.11-.48v-.07A15.46,15.46,0,0,0,16.69,43.4Z"/><path class="cls-1" d="M18.58,36.79a10.17,10.17,0,0,0-1.21,1.62l.19.48a9,9,0,0,1,1.21-1.59l-.19-.5Z"/><path class="cls-1" d="M19.64,34.45,19,34.09q.33-.67.68-1.33l-.36-.21q-.36.66-.69,1.35l-.42-.22q.4-.81.83-1.6l-.35-.21a40.65,40.65,0,0,0-2.4,5.23c-.08-.13-.17-.28-.27-.43a41.14,41.14,0,0,1,1.87-4.19l-.34-.19a41.55,41.55,0,0,0-1.81,4,4.39,4.39,0,0,0-.3-.34,41.67,41.67,0,0,1,2-4.32l-.35-.2a42,42,0,0,0-2,4.2,3.35,3.35,0,0,0-.3-.26l-.36.77.36.28h0q-.62,1.64-1.12,3.37L14,40A24.37,24.37,0,0,1,15.1,36.8c.1.11.21.21.3.34q-.47,1.26-.86,2.58l.36.08q.36-1.19.78-2.34a4.93,4.93,0,0,1,.27.45q-.52,1.41-.93,2.89l.37.12q.36-1.27.78-2.49a9.35,9.35,0,0,1,.61,3.41l.51-.34a12.43,12.43,0,0,0-.3-2.59,40.16,40.16,0,0,1,1.66-4.15l.58.3c.18.09.21.21.08.54s-.27.62-.43.93h.47q.21-.5.44-1C20,35,20,34.64,19.64,34.45Zm-2.9,3.74a3.2,3.2,0,0,0-.29-.63q.62-1.66,1.35-3.23l.43.21Q17.41,36.35,16.74,38.19Z"/><path class="cls-1" d="M15.06,35a6.77,6.77,0,0,0-.33-1l.36-.78A4.67,4.67,0,0,1,16,33l.19-.71a4.21,4.21,0,0,0-.74.26q.49-1,1-2l-.36-.21q-.86,1.57-1.61,3.24l-.26-.41-.43.74a4.48,4.48,0,0,1,.73,1.68Z"/><path class="cls-1" d="M13.42,40a8.43,8.43,0,0,0-.36-1.19l.25-.8a5.13,5.13,0,0,1,.87-.38q0-.37.1-.76a5,5,0,0,0-.7.32q.28-.8.59-1.59l-.37-.16q-.55,1.35-1,2.8a3.73,3.73,0,0,0-.29-.48l-.36.82A5.61,5.61,0,0,1,13,40.67Z"/><path class="cls-1" d="M20.23,29.33l.61-.19a12.26,12.26,0,0,0,.37-2.59l-.58.26A12,12,0,0,1,20.23,29.33Z"/><polygon class="cls-1" points="24.33 24.15 24.33 24.16 24.33 24.16 24.33 24.15"/><path class="cls-1" d="M21.15,28.34l1.34.93a37.14,37.14,0,0,1,2.35-3L23.6,25.19A38.67,38.67,0,0,0,21.15,28.34Zm1.41.08L21.94,28q.74-1,1.52-1.94l.6.54Q23.29,27.44,22.57,28.43Z"/><path class="cls-1" d="M23.75,22.32q-.85.87-1.65,1.8a7.39,7.39,0,0,0-.19-1q.81-.91,1.66-1.76L23.24,21a41.48,41.48,0,0,0-3,3.38,5.1,5.1,0,0,0-.72-.13l-.5.78a4.67,4.67,0,0,1,.67,0A41.49,41.49,0,0,0,17,29l.39.25q.63-1,1.3-2a4.57,4.57,0,0,1,1,0q-.68,1-1.32,2l3.57,2.31.38-.6-3.18-2.13a39.89,39.89,0,0,1,4.39-5.61l2.23,2.09c.2.16.2.35,0,.55l-.67.72.45.15.68-.76c.39-.42.45-.78.13-1.09Zm-3.61,4.14a5.54,5.54,0,0,0-.93,0q1-1.41,2.12-2.71c.08.33.15.65.21,1Z"/><path class="cls-1" d="M24.33,24.16a11.66,11.66,0,0,0-2.33.92q-.06.3-.1.61a9.77,9.77,0,0,1,2.32-.88Q24.27,24.48,24.33,24.16Z"/><path class="cls-1" d="M32.61,18.49a14.67,14.67,0,0,0-.32-3.37l-.66.25A13.68,13.68,0,0,1,32,18.73Z"/><path class="cls-1" d="M32.1,19.91,29,15.63l-.67.47,3.19,4.23-1.14.85L27,17.06l-.64.5,3.41,4.06q-1.17.93-2.26,2l.33.34a38.49,38.49,0,0,1,7-5.22l-.24-.39Q33.33,19.06,32.1,19.91Z"/><path class="cls-1" d="M28.56,21.34h0A13.77,13.77,0,0,0,25.36,20l-.4.55a14.22,14.22,0,0,1,3.16,1.31Z"/><path class="cls-1" d="M39.7,13.93l1,2.27.66-.25-.93-2.31h.11a10.84,10.84,0,0,0,3.12,1.21l.31-.52a9.55,9.55,0,0,1-2.85-.89q1.07-.37,2.15-.7l-.15-.44q-1.45.4-2.87.93l-.27-.66q1-.37,2-.7l-.7-2h0a48.3,48.3,0,0,0-4.9,1.86l.93,1.87q1-.43,2-.82l.28.66q-1.36.53-2.68,1.15l.21.41q1-.46,2-.87a7.53,7.53,0,0,1-1.43,2.51l.56.21a8.17,8.17,0,0,0,1.43-3Zm-1.93-1-.5-1.07q1.68-.71,3.41-1.3l.41,1.09Q39.4,12.24,37.77,12.94Z"/><path class="cls-1" d="M35.67,11.94l-.79.09A8.41,8.41,0,0,1,34,15.58l.49.32a12.39,12.39,0,0,0,.58-1.31l1.82,3.29.64-.32-2.13-4A8.32,8.32,0,0,0,35.67,11.94Z"/><path class="cls-1" d="M50.08,10.91l.12.77-2.35.38.09.44q1.13-.22,2.27-.38l.13.84q-1.33.2-2.64.46l.1.44a45.68,45.68,0,0,1,5.9-.79v-.45q-1.3.12-2.64.29L51,12.06q1.14-.14,2.29-.23v-.45q-1.16.08-2.31.23l-.11-.77q1.08-.14,2.18-.22l-.28-3h0a51.91,51.91,0,0,0-5.43.7l.63,3Q49,11.07,50.08,10.91Zm2.15-.64-1.47.16-.12-.88,1.49-.17ZM52,8l.09.93-1.5.17-.13-.93Zm-2,2.49-1.43.23-.17-.87,1.5-.23Zm-.31-2.16.14.88-1.53.23-.17-.88Z"/><path class="cls-1" d="M44.79,9.51,45.2,11l-1.13.29.13.44,1.11-.29L45.75,13l-1.23.52.23.36c1-.44,1.94-.87,2.8-1.3l-.1-.45-1,.51L46,11.23,47.19,11l-.1-.44-1.15.24-.38-1.51L46.87,9l-.09-.44q-1.75.36-3.47.82l.13.43Z"/><path class="cls-1" d="M56.17,13.23h.69a6.12,6.12,0,0,1-.93-1.35,3.74,3.74,0,0,1-.5-1.69,3.32,3.32,0,0,1,.42-1.72,4.67,4.67,0,0,1,1-1.37H56a4.74,4.74,0,0,0-1.1,1.38,3.27,3.27,0,0,0-.39,1.74,3.64,3.64,0,0,0,.54,1.68A6.26,6.26,0,0,0,56.17,13.23Z"/><path class="cls-1" d="M66.88,13.52q-2.23-.49-4.5-.75l.36-2.8q2,.23,3.92.62l.1-.45q-2-.38-4-.62l.26-2-.86-.09-.59,5.27a30.21,30.21,0,0,0-3.6-.21v.46a45.92,45.92,0,0,1,8.75,1Z"/><path class="cls-1" d="M76.45,14.84l.83.38.21-.39-.81-.37.77-1.35a47,47,0,0,0-5.09-2,13.62,13.62,0,0,1-.66,1.4l-1.07-.33-.13.42,1,.3c-.3.44-.61.92-.93,1.37A43.63,43.63,0,0,1,75,15.93a.8.8,0,0,1-.14.17.76.76,0,0,1-.56.08,5.27,5.27,0,0,1-.69-.22l-.93-.37v.48l.79.3a4.42,4.42,0,0,0,1.16.33,1,1,0,0,0,.72-.21,2.17,2.17,0,0,0,.22-.28l.79.36.19-.36-.76-.35Zm-3.66-3.07,1.29.47-.53.1a6.42,6.42,0,0,1,1,1.07l.57-.1a7.31,7.31,0,0,0-1-1c.79.3,1.59.61,2.38,1l-.51,1q-1.87-.79-3.74-1.43C72.45,12.47,72.62,12.13,72.79,11.76Zm2.42,3.73a29.3,29.3,0,0,0-3.85-1.35l0-.09c.22-.3.45-.64.68-1q1.87.63,3.74,1.42Z"/><path class="cls-1" d="M70.07,11.85l.62-.17a9.73,9.73,0,0,0-1.38-1.28l-.64.19A8.26,8.26,0,0,1,70.07,11.85Z"/><path class="cls-1" d="M70.43,12.9l-.57-.33a24,24,0,0,1-2,1.66l.59.35C69.09,14.06,69.77,13.51,70.43,12.9Z"/><path class="cls-1" d="M71.36,10.18v0A9.2,9.2,0,0,0,70,8.94l-.65.17a8,8,0,0,1,1.41,1.23Z"/><path class="cls-1" d="M72.29,11c.26-.09.5-.21.77-.28a47.35,47.35,0,0,1,5.06,2l.21-.39a47.71,47.71,0,0,0-4.76-1.92,5,5,0,0,0,.5-.32l-.73-.36a6.47,6.47,0,0,1-2.19,1.15l.36.49a7.17,7.17,0,0,0,.83-.25l-.06,0Z"/><polygon class="cls-1" points="72.35 11.13 72.36 11.13 72.36 11.13 72.35 11.13"/><path class="cls-1" d="M74.37,14.74a7.14,7.14,0,0,0-1-1.12l-.54.11a6.6,6.6,0,0,1,.93,1.11Z"/><path class="cls-1" d="M79.91,12.47a4.93,4.93,0,0,1,.26,1.68,3.43,3.43,0,0,1-.46,1.72,4,4,0,0,1-1.27,1.27,7.32,7.32,0,0,1-1.51.76l.61.32a7.29,7.29,0,0,0,1.59-.69,4,4,0,0,0,1.29-1.25,3.41,3.41,0,0,0,.5-1.72,5,5,0,0,0-.31-1.73Z"/><path class="cls-1" d="M84.67,17.75a10.43,10.43,0,0,0,1-.2,41.9,41.9,0,0,1,4.41,3.79l.34-.33a42.25,42.25,0,0,0-4.18-3.62c.26-.08.52-.19.78-.3l-.62-.54a7.21,7.21,0,0,1-.88.33q-1.34-1-2.74-1.87l-.25.39Q83.82,16.17,85,17a13.34,13.34,0,0,1-3.92.15l.2.6a18.36,18.36,0,0,0,2.43.07l-2.06,2.8.54.38.87-1.15a39.24,39.24,0,0,1,3.16,2.55L85.7,23q-.17.17-.46-.08l-.79-.71-.15.45.84.72c.39.36.71.42.93.19l2.49-2.62A41.48,41.48,0,0,0,84.67,17.75Zm1.82,4.34a39.55,39.55,0,0,0-3.19-2.55l.43-.56A40.15,40.15,0,0,1,87,21.57ZM84,18.64l.45-.58a41.11,41.11,0,0,1,3.32,2.66l-.5.53A40.62,40.62,0,0,0,84,18.64Z"/><path class="cls-1" d="M91.14,26.88A2.58,2.58,0,0,0,91.69,25q1.19-.1,2.21-.25l.31-.28a34.6,34.6,0,0,0-2.31-2.62l-4.3,4,.48.51,4-3.61q.63.69,1.22,1.42a20.24,20.24,0,0,1-2.22.28,2.16,2.16,0,0,1-.44,1.87.33.33,0,0,1-.36,0,2.92,2.92,0,0,1-.59-.53c-.07-.07-.14-.19-.24-.32l-.21.5a4.12,4.12,0,0,0,1.19,1A.68.68,0,0,0,91.14,26.88Z"/><path class="cls-1" d="M93.14,30.57a6.77,6.77,0,0,0,1.56,1v-.62a6.66,6.66,0,0,1-1.48-.87,3.16,3.16,0,0,1,.54-1.17q.56.85,1.08,1.74l2.43-1.5a41.87,41.87,0,0,0-2.8-4.22L90.41,28.1c-.06,0-.15,0-.26-.08l-.21.39c.83.76,1.52,1.4,2.1,1.92l.28-.39c-.5-.42-1-.84-1.44-1.27l1.87-1.37h0a7,7,0,0,1,.64,1c-.8,1-1,2.47-.74,4.34l.57.15A7.73,7.73,0,0,1,93.14,30.57Zm1.56-4.7q.93,1.34,1.87,2.8l-.62.46q-.88-1.47-1.87-2.8ZM93.1,27l.64-.5q1,1.37,1.87,2.8l-.64.41Q94,28.33,93.1,27Z"/><path class="cls-1" d="M99.67,42.32h0a9.73,9.73,0,0,1,1.78-4.58l-.46-.65a9.78,9.78,0,0,0-1.87,4.73Z"/><path class="cls-1" d="M95.92,33a10.52,10.52,0,0,0,4.29,1.73l-.15-.82a9.62,9.62,0,0,1-4.14-1.63Z"/><path class="cls-1" d="M97.84,38.46a11.92,11.92,0,0,1-.8,1.78c-.62-1.51-1.32-3.08-2.1-4.67a24.49,24.49,0,0,0,3.82,1.51l-.15-.84c-2.19-.62-3.58-1.12-4.2-1.77l-.35.35a57.73,57.73,0,0,1,2.72,5.92c-.14.22-.29.46-.46.69l.39.67a11.54,11.54,0,0,0,1.51-3Z"/><path class="cls-1" d="M102.4,51.66a52.63,52.63,0,0,0-1-8.29l-.42.1a52.1,52.1,0,0,1,1,8.19Z"/><path class="cls-1" d="M102.8,43.61l-.45.1a54.69,54.69,0,0,1,.93,9.42l-4.4.1c-.27,0-.41-.2-.41-.59q0-.87-.07-1.8L98,51.1q0,.87.07,1.77c0,.88.25,1.33.72,1.33h5A55.76,55.76,0,0,0,102.8,43.61Z"/><path class="cls-1" d="M98.39,45.07a48.68,48.68,0,0,1,.68,5.49l2-.18a51,51,0,0,0-.72-5.75Zm1,4.56q-.16-1.92-.47-3.79l1.16-.23q.32,1.9.49,3.9Z"/><path class="cls-1" d="M57,0a57,57,0,1,0,57,57A57,57,0,0,0,57,0Zm0,111.63A54.63,54.63,0,1,1,111.63,57,54.69,54.69,0,0,1,57,111.63Z"/><polygon class="cls-1" points="61.44 52.69 57 39.91 52.55 52.69 39.03 52.96 49.81 61.14 45.89 74.09 57 66.36 68.11 74.09 64.19 61.14 74.97 52.96 61.44 52.69"/></g></g></svg>