<svg xmlns="http://www.w3.org/2000/svg" viewBox="0 0 22 20"><defs><style>.cls-1,.cls-3{fill:#54b4fe;}.cls-1{opacity:0.3;}.cls-2{fill:none;stroke:#54b4fe;stroke-miterlimit:10;stroke-width:2px;}</style></defs><title>企业授信资料</title><g id="图层_2" data-name="图层 2"><g id="图层_1-2" data-name="图层 1"><circle class="cls-1" cx="14.22" cy="13.5" r="6.5"/><line class="cls-2" x1="4.76" y1="8.48" x2="7.57" y2="8.48"/><line class="cls-2" x1="9.43" y1="8.48" x2="12.24" y2="8.48"/><line class="cls-2" x1="4.76" y1="4.93" x2="7.57" y2="4.93"/><line class="cls-2" x1="9.43" y1="4.93" x2="12.24" y2="4.93"/><line class="cls-2" x1="4.8" y1="12.02" x2="7.61" y2="12.02"/><line class="cls-2" x1="9.43" y1="12.02" x2="12.24" y2="12.02"/><path class="cls-3" d="M14,2V18H3V2H14m1-2H2A1,1,0,0,0,1,1V20H16V1a1,1,0,0,0-1-1Z"/><path class="cls-3" d="M19,9.65V18H16V9.65h3m1-2H14V20h7V8.65a1,1,0,0,0-1-1Z"/><rect class="cls-3" y="18" width="22" height="2"/></g></g></svg>