<svg xmlns="http://www.w3.org/2000/svg" viewBox="0 0 20 20"><defs><style>.cls-1{fill:#bbb;}.cls-2{fill:none;}</style></defs><title>企业联系人</title><g id="图层_2" data-name="图层 2"><g id="图层_1-2" data-name="图层 1"><path class="cls-1" d="M10,1.88A4.61,4.61,0,1,1,5.39,6.48,4.61,4.61,0,0,1,10,1.88M10,.63a5.86,5.86,0,1,0,5.86,5.86A5.86,5.86,0,0,0,10,.63Z"/><path class="cls-1" d="M20,19.37H18.75a5.24,5.24,0,0,0-5.23-5.23h-7a5.24,5.24,0,0,0-5.23,5.23H0a6.49,6.49,0,0,1,6.48-6.48h7A6.49,6.49,0,0,1,20,19.37Z"/><rect class="cls-2" width="20" height="20"/></g></g></svg>