<svg xmlns="http://www.w3.org/2000/svg" viewBox="0 0 20 20"><defs><style>.cls-1{fill:#bbb;}.cls-2{fill:none;}</style></defs><title>公司电话</title><g id="图层_2" data-name="图层 2"><g id="图层_1-2" data-name="图层 1"><path class="cls-1" d="M14.39,19.16c-2.12,0-5.82-1.56-9.31-5.06C1.8,10.81-1.54,5,.76,2.73A5.26,5.26,0,0,1,4.28.84,3.58,3.58,0,0,1,7.09,2.37c2.22,2.77.77,4.46-.18,5.41a7.48,7.48,0,0,0,1.94,2.56,10,10,0,0,0,2.48,2,3.79,3.79,0,0,1,2.74-1.44,4.46,4.46,0,0,1,2.76,1.17h0a3.63,3.63,0,0,1,1.52,2.65c.09,1.7-1.24,3-1.89,3.68A2.8,2.8,0,0,1,14.39,19.16ZM4.28,2.05A4.28,4.28,0,0,0,1.62,3.59c-1.35,1.35.8,6.13,4.32,9.66,3.23,3.23,6.65,4.7,8.45,4.7a1.66,1.66,0,0,0,1.21-.38c.52-.52,1.6-1.6,1.54-2.76A2.49,2.49,0,0,0,16.07,13a3.34,3.34,0,0,0-2-.91,2.84,2.84,0,0,0-2,1.15l-.41.35h-.22c-.7,0-1.87-.82-3.5-2.44C5.6,8.81,5.58,7.7,5.77,7.26l.13-.19c1-1,1.9-1.88.24-3.95A2.43,2.43,0,0,0,4.28,2.05Z"/><rect class="cls-1" x="11.25" y="2.09" width="6.25" height="1.21"/><rect class="cls-1" x="11.25" y="5.87" width="8.75" height="1.21"/><rect class="cls-2" width="20" height="20"/></g></g></svg>