<svg xmlns="http://www.w3.org/2000/svg" viewBox="0 0 100 79.78"><defs><style>.cls-1{fill:#f7f7f7;}.cls-2{fill:#eee;}.cls-3{fill:#fff;}</style></defs><title>资源 1</title><g id="图层_2" data-name="图层 2"><g id="图层_1-2" data-name="图层 1"><path class="cls-1" d="M93.44,9.7H58.73l5.1-7.84A4.08,4.08,0,0,1,67.25,0H93.44Z"/><path class="cls-2" d="M100,60.72A19.06,19.06,0,1,1,80.94,41.66,19.07,19.07,0,0,1,100,60.72Z"/><circle class="cls-3" cx="70.29" cy="61.48" r="2.8"/><circle class="cls-3" cx="80.77" cy="61.48" r="2.8"/><circle class="cls-3" cx="91.37" cy="61.48" r="2.8"/><path class="cls-2" d="M0,78H66.88A22.38,22.38,0,0,1,93.44,42V21.41H0Z"/><path class="cls-2" d="M9.44,9.7A9.45,9.45,0,0,0,0,18.19H93.44V9.7Z"/></g></g></svg>